<?xml version="1.0" encoding="UTF-8" standalone="no"?>
<!-- Created with Inkscape (http://www.inkscape.org/) -->

<svg
   xmlns:dc="http://purl.org/dc/elements/1.1/"
   xmlns:cc="http://creativecommons.org/ns#"
   xmlns:rdf="http://www.w3.org/1999/02/22-rdf-syntax-ns#"
   xmlns:svg="http://www.w3.org/2000/svg"
   xmlns="http://www.w3.org/2000/svg"
   xmlns:sodipodi="http://sodipodi.sourceforge.net/DTD/sodipodi-0.dtd"
   xmlns:inkscape="http://www.inkscape.org/namespaces/inkscape"
   id="svg3371"
   version="1.1"
   inkscape:version="0.91 r13725"
   xml:space="preserve"
   width="3.5in"
   height="2in"
   viewBox="0 0 314.99998 180"
   sodipodi:docname="researchobject-sticker-plain.svg"><metadata
     id="metadata3377"><rdf:RDF><cc:Work
         rdf:about=""><dc:format>image/svg+xml</dc:format><dc:type
           rdf:resource="http://purl.org/dc/dcmitype/StillImage" /><dc:title></dc:title><cc:license
           rdf:resource="http://creativecommons.org/licenses/by/3.0/" /></cc:Work><cc:License
         rdf:about="http://creativecommons.org/licenses/by/3.0/"><cc:permits
           rdf:resource="http://creativecommons.org/ns#Reproduction" /><cc:permits
           rdf:resource="http://creativecommons.org/ns#Distribution" /><cc:requires
           rdf:resource="http://creativecommons.org/ns#Notice" /><cc:requires
           rdf:resource="http://creativecommons.org/ns#Attribution" /><cc:permits
           rdf:resource="http://creativecommons.org/ns#DerivativeWorks" /></cc:License></rdf:RDF></metadata><defs
     id="defs3375"><clipPath
       clipPathUnits="userSpaceOnUse"
       id="clipPath3425"><path
         d="m 1356.33,510.352 -53.96,15.144 -0.98,0.141 -68.28,0 0,0.133 -0.49,-0.133 -3.21,0 0,0 -90.91,0 -1.15,-0.188 -36.6,-11.918 -199.258,114.899 -1.629,0.933 -817.9567,8.039 0,479.448 2276.3037,0 0,-479.409 -784.31,-2.683 -1.91,0 -215.66,-124.406"
         id="path3427"
         inkscape:connector-curvature="0" /></clipPath></defs><sodipodi:namedview
     pagecolor="#ffffff"
     bordercolor="#666666"
     borderopacity="1"
     objecttolerance="10"
     gridtolerance="10"
     guidetolerance="10"
     inkscape:pageopacity="0"
     inkscape:pageshadow="2"
     inkscape:window-width="2560"
     inkscape:window-height="1403"
     id="namedview3373"
     showgrid="false"
     showguides="true"
     inkscape:zoom="2.0000001"
     inkscape:cx="34.534454"
     inkscape:cy="90.744485"
     inkscape:window-x="3120"
     inkscape:window-y="160"
     inkscape:window-maximized="1"
     inkscape:current-layer="g3379"
     fit-margin-top="0"
     fit-margin-left="0"
     fit-margin-right="0"
     fit-margin-bottom="0"
     units="in"><inkscape:grid
       type="xygrid"
       id="grid3578" /></sodipodi:namedview><g
     id="g3379"
     inkscape:groupmode="layer"
     inkscape:label="ink_ext_XXXXXX"
     transform="matrix(1.25,0,0,-1.25,-8.4497125,183.82566)"><g
       id="g3381"
       transform="matrix(0.1,0,0,0.1,11.2,21.199999)"><path
         d="m 1229.41,520.93 179.57,-51.684 -179.57,-49.637 0,101.321"
         style="fill:#bdbcbc;fill-opacity:1;fill-rule:evenodd;stroke:none"
         id="path3383"
         inkscape:connector-curvature="0" /><path
         d="m 1229.41,521.945 71.98,0 184.12,-51.672 -65.73,0 -190.37,51.672"
         style="fill:#e9e9e9;fill-opacity:1;fill-rule:evenodd;stroke:none"
         id="path3385"
         inkscape:connector-curvature="0" /><path
         d="m 1485.51,466.594 -65.73,0 c -2.05,0 -3.7,1.636 -3.7,3.679 0,2.024 1.65,3.68 3.7,3.68 l 38.98,0 -157.88,44.317 -71.47,0 c -2.02,0 -3.67,1.632 -3.67,3.675 0,2.032 1.65,3.692 3.67,3.692 l 71.98,0 0.98,-0.141 184.12,-51.687 c 1.78,-0.489 2.91,-2.227 2.66,-4.043 -0.24,-1.817 -1.8,-3.172 -3.64,-3.172"
         style="fill:#4f4c4c;fill-opacity:1;fill-rule:nonzero;stroke:none"
         id="path3387"
         inkscape:connector-curvature="0" /><path
         d="m 1045.23,470.273 -65.453,0 158.723,51.672 90.91,0 -184.18,-51.672"
         style="fill:#e9e9e9;fill-opacity:1;fill-rule:evenodd;stroke:none"
         id="path3389"
         inkscape:connector-curvature="0" /><path
         d="m 1045.23,466.594 -65.453,0 c -1.816,0 -3.351,1.297 -3.644,3.101 -0.281,1.782 0.769,3.528 2.5,4.086 l 158.717,51.668 1.15,0.188 90.91,0 c 2.05,0 3.7,-1.66 3.7,-3.692 0,-2.043 -1.65,-3.675 -3.7,-3.675 l -90.34,0 -136.09,-44.317 42.25,0 c 2.04,0 3.68,-1.656 3.68,-3.68 0,-2.043 -1.64,-3.679 -3.68,-3.679"
         style="fill:#4f4c4c;fill-opacity:1;fill-rule:nonzero;stroke:none"
         id="path3391"
         inkscape:connector-curvature="0" /><path
         d="m 1045.23,254.871 187.27,-52.191 -3.09,217.965 -184.18,49.628 0,-215.402"
         style="fill:#bdbcbc;fill-opacity:1;fill-rule:nonzero;stroke:none"
         id="path3393"
         inkscape:connector-curvature="0" /><path
         d="m 1419.75,470.273 -190.34,-49.628 3.09,-217.965 187.25,49.129 0,218.464"
         style="fill:#eaeaea;fill-opacity:1;fill-rule:nonzero;stroke:none"
         id="path3395"
         inkscape:connector-curvature="0" /><path
         d="m 1048.91,257.676 183.62,-51.188 183.55,48.16 0,212.793 -186.64,50.696 -180.53,-50.664 0,-209.797 M 1232.5,199 l -0.99,0.141 -187.28,52.199 c -1.59,0.43 -2.69,1.883 -2.69,3.531 l 0,215.402 c 0,1.641 1.1,3.094 2.69,3.536 l 184.21,51.687 1.95,0 190.33,-51.68 c 1.62,-0.425 2.73,-1.882 2.73,-3.543 l 0,-218.464 c 0,-1.672 -1.14,-3.149 -2.76,-3.567 L 1233.44,199.109 1232.5,199"
         style="fill:#4f4c4c;fill-opacity:1;fill-rule:nonzero;stroke:none"
         id="path3397"
         inkscape:connector-curvature="0" /><path
         d="m 1141.93,303.352 c -14.56,4.453 -32.02,13.308 -33.4,23.679 -1.11,7.903 5.12,14.461 11.16,20.821 3.85,4.074 7.88,8.3 8.81,11.933 1.14,4.5 0.94,6.699 0.58,11.082 -0.09,0.781 -0.16,1.594 -0.22,2.524 -0.14,1.785 1.2,2.898 2.96,2.468 1.77,-0.449 3.36,-2.226 3.46,-4.023 l 0.24,-2.449 c 0.38,-4.582 0.63,-7.602 -0.75,-13.039 -1.22,-4.805 -5.4,-9.246 -9.86,-13.907 -5.01,-5.3 -10.74,-11.296 -10.02,-16.543 0.54,-3.957 11.01,-11.23 26.95,-16.125 15.94,-4.863 26.31,-3.945 26.78,-0.293 0.57,4.829 -5.33,14.375 -10.51,22.805 -4.57,7.449 -8.92,14.461 -10.26,20.07 -1.58,6.485 -0.89,21.7 -0.24,32.579 l 0.06,0.664 c 0.09,1.746 1.59,2.644 3.37,1.941 1.78,-0.684 3.17,-2.605 3.05,-4.348 l -0.06,-0.679 c -0.94,-16.164 -0.94,-26.438 0.06,-30.547 1.03,-4.238 5.18,-10.942 9.14,-17.445 6.23,-10.086 12.67,-20.516 11.77,-27.832 -1.17,-9.579 -18.54,-7.77 -33.07,-3.336"
         style="fill:#4f4c4c;fill-opacity:1;fill-rule:nonzero;stroke:none"
         id="path3399"
         inkscape:connector-curvature="0" /><path
         d="m 1159.44,317.297 c 0.09,-8.149 -36.22,2.266 -36.36,11.648 -0.18,15.782 36.22,1.465 36.36,-11.648"
         style="fill:#3ca3b1;fill-opacity:1;fill-rule:evenodd;stroke:none"
         id="path3401"
         inkscape:connector-curvature="0" /><path
         d="m 1142.97,280.684 c -30.42,9.304 -55.43,41.484 -55.81,71.777 -0.26,21.609 12.28,37.383 32,40.168 1.6,0.23 3.54,-1.066 4.28,-2.934 0.72,-1.836 0.05,-3.511 -1.58,-3.726 -17.38,-2.492 -28.47,-16.399 -28.25,-35.473 0.34,-26.746 22.43,-55.183 49.28,-63.387 26.85,-8.222 48.43,6.844 48.13,33.606 -0.29,22.957 -17.8,49.082 -40.76,60.75 -1.72,0.89 -2.91,2.922 -2.56,4.543 0.33,1.629 2.04,2.234 3.76,1.336 25.94,-13.172 45.69,-42.676 46.01,-68.614 0.36,-30.292 -24.09,-47.343 -54.5,-38.046"
         style="fill:#4f4c4c;fill-opacity:1;fill-rule:nonzero;stroke:none"
         id="path3403"
         inkscape:connector-curvature="0" /><path
         d="m 1121.65,391.973 6.31,-8.035 -8.41,0.25 2.1,7.785"
         style="fill:#4f4c4c;fill-opacity:1;fill-rule:evenodd;stroke:none"
         id="path3405"
         inkscape:connector-curvature="0" /><path
         d="m 1119.58,380.984 -2.29,1.621 c -0.82,1.047 -1.15,2.329 -0.87,3.364 l 2.1,7.754 c 0.28,1.011 1.12,1.629 2.23,1.597 1.11,-0.027 2.3,-0.679 3.13,-1.757 l 6.31,-8.016 c 0.82,-1.067 1.16,-2.356 0.89,-3.367 -0.27,-0.996 -1.13,-1.645 -2.25,-1.594 l -8.36,0.242 -0.89,0.156"
         style="fill:#4f4c4c;fill-opacity:1;fill-rule:nonzero;stroke:none"
         id="path3407"
         inkscape:connector-curvature="0" /><path
         d="m 1045.23,470.273 -45.55,-74.953 169.14,-50.718 60.59,76.043 -184.18,49.628"
         style="fill:#e9e9e9;fill-opacity:1;fill-rule:evenodd;stroke:none"
         id="path3409"
         inkscape:connector-curvature="0" /><path
         d="m 1005.29,397.48 162.2,-48.632 55.56,69.707 -176.11,47.441 -41.65,-68.516 m 163.53,-56.55 -1.06,0.144 -169.147,50.735 c -1.086,0.32 -1.965,1.132 -2.375,2.183 -0.418,1.086 -0.3,2.27 0.293,3.242 l 45.549,74.954 c 0.86,1.398 2.53,2.058 4.1,1.628 l 184.2,-49.617 c 1.21,-0.32 2.17,-1.219 2.54,-2.402 0.39,-1.184 0.16,-2.461 -0.62,-3.438 l -60.6,-76.054 c -0.71,-0.887 -1.79,-1.375 -2.88,-1.375"
         style="fill:#4f4c4c;fill-opacity:1;fill-rule:nonzero;stroke:none"
         id="path3411"
         inkscape:connector-curvature="0" /><path
         d="m 1229.41,420.645 49.87,-80.418 186.58,52.468 -46.08,77.578 -190.37,-49.628"
         style="fill:#e9e9e9;fill-opacity:1;fill-rule:evenodd;stroke:none"
         id="path3413"
         inkscape:connector-curvature="0" /><path
         d="m 1235.19,418.34 45.76,-73.828 179.29,50.437 -42.23,71.059 -182.82,-47.668 m 44.09,-81.809 c -1.24,0 -2.43,0.649 -3.14,1.75 l -49.84,80.418 c -0.63,1 -0.72,2.231 -0.29,3.313 0.43,1.082 1.36,1.906 2.49,2.199 l 190.34,49.617 c 1.58,0.442 3.25,-0.273 4.09,-1.672 l 46.1,-77.578 c 0.59,-0.973 0.69,-2.176 0.27,-3.238 -0.43,-1.055 -1.34,-1.867 -2.44,-2.18 l -186.58,-52.48 -1,-0.149"
         style="fill:#4f4c4c;fill-opacity:1;fill-rule:nonzero;stroke:none"
         id="path3415"
         inkscape:connector-curvature="0" /><path
         d="m 1229.41,520.93 -179.54,-50.657 179.54,-49.628 0,100.285"
         style="fill:#eaeaea;fill-opacity:1;fill-rule:evenodd;stroke:none"
         id="path3417"
         inkscape:connector-curvature="0" /><path
         d="m 1063.56,470.313 162.18,-44.817 0,90.551 -162.18,-45.734 m 169.55,-54.5 -196.93,54.429 196.93,55.528 0,-109.957"
         style="fill:#4f4c4c;fill-opacity:1;fill-rule:nonzero;stroke:none"
         id="path3419"
         inkscape:connector-curvature="0" /><g
         id="g3421"><g
           id="g3423"
           clip-path="url(#clipPath3425)"><path
             d="m 81.9063,510.352 2276.3,0 0,606.496 -2276.3,0 0,-606.496 z"
             style="fill:#fcfcfc;fill-opacity:1;fill-rule:nonzero;stroke:none"
             id="path3429"
             inkscape:connector-curvature="0" /></g></g><path
         d="m 1233.11,439.273 0,77.868 91.77,-24.926 -91.77,-52.942"
         style="fill:#cecdcd;fill-opacity:1;fill-rule:nonzero;stroke:none"
         id="path3431"
         inkscape:connector-curvature="0" /><path
         d="m 1333.87,497.398 -76.86,20.872 43.87,0 46.53,-13.059 -13.54,-7.813"
         style="fill:#ededed;fill-opacity:1;fill-rule:nonzero;stroke:none"
         id="path3433"
         inkscape:connector-curvature="0" /><path
         d="m 1347.41,505.211 -46.53,13.059 -43.87,0 -23.9,6.492 0,0.875 68.28,0 0.98,-0.141 53.96,-15.144 -8.92,-5.141 m -116.13,20.047 -0.71,0.191 c -0.36,0.121 -0.75,0.188 -1.16,0.188 l 3.21,0 -1.34,-0.379"
         style="fill:#817f7f;fill-opacity:1;fill-rule:nonzero;stroke:none"
         id="path3435"
         inkscape:connector-curvature="0" /><path
         d="m 1128.59,497.48 -19.26,11.106 29.74,9.684 63.61,0 -74.09,-20.79"
         style="fill:#ededed;fill-opacity:1;fill-rule:nonzero;stroke:none"
         id="path3437"
         inkscape:connector-curvature="0" /><path
         d="m 1109.33,508.586 -8.58,4.945 36.6,11.918 1.15,0.188 90.91,0 c 0.41,0 0.8,-0.067 1.16,-0.188 l -0.18,0.047 -1.95,0 -25.76,-7.226 -63.61,0 -29.74,-9.684"
         style="fill:#817f7f;fill-opacity:1;fill-rule:nonzero;stroke:none"
         id="path3439"
         inkscape:connector-curvature="0" /><path
         d="m 1324.88,492.215 -91.77,24.926 0,7.621 23.9,-6.492 76.86,-20.872 -8.99,-5.183 m -194.92,4.473 -1.37,0.792 74.09,20.79 25.76,7.226 1.95,0 0.18,-0.047 0.71,-0.191 -101.32,-28.57"
         style="fill:#817f7f;fill-opacity:1;fill-rule:nonzero;stroke:none"
         id="path3441"
         inkscape:connector-curvature="0" /><path
         d="m 1225.74,441.457 -86.87,50.094 86.87,24.496 0,-74.59"
         style="fill:#ededed;fill-opacity:1;fill-rule:nonzero;stroke:none"
         id="path3443"
         inkscape:connector-curvature="0" /><path
         d="m 1231.32,438.242 -5.58,3.215 0,74.59 -86.87,-24.496 -8.91,5.137 101.32,28.57 1.34,0.379 0.49,0.133 0,-86.497 -1.79,-1.031"
         style="fill:#817f7f;fill-opacity:1;fill-rule:nonzero;stroke:none"
         id="path3445"
         inkscape:connector-curvature="0" /><path
         d="m 1375.6,504.941 -19.27,5.411 215.66,124.406 1.91,0 784.31,2.683 0,479.409 -2276.3037,0 0,-479.448 817.9567,-8.039 1.629,-0.933 199.258,-114.899 -18.32,-5.961 -186.453,107.52 -828.3793,8.144 0,507.916 2304.9223,0 0,-507.955 -796.67,-2.746 -200.25,-115.508"
         style="fill:#cac9c9;fill-opacity:1;fill-rule:nonzero;stroke:none"
         id="path3447"
         inkscape:connector-curvature="0" /><path
         d="m 1233.11,425.41 0,13.863 91.77,52.942 19.48,-5.293 -102.84,-59.317 -8.41,-2.195"
         style="fill:#9c9a9a;fill-opacity:1;fill-rule:nonzero;stroke:none"
         id="path3449"
         inkscape:connector-curvature="0" /><path
         d="m 1353.35,492.109 -19.48,5.289 13.54,7.813 19.28,-5.41 -13.34,-7.692"
         style="fill:#bbbaba;fill-opacity:1;fill-rule:nonzero;stroke:none"
         id="path3451"
         inkscape:connector-curvature="0" /><path
         d="m 1366.69,499.801 -19.28,5.41 8.92,5.141 19.27,-5.411 -8.91,-5.14"
         style="fill:#4f4c4c;fill-opacity:1;fill-rule:nonzero;stroke:none"
         id="path3453"
         inkscape:connector-curvature="0" /><path
         d="m 1109.31,492.07 -18.3,10.551 18.32,5.965 19.26,-11.106 -19.28,-5.41"
         style="fill:#bbbaba;fill-opacity:1;fill-rule:nonzero;stroke:none"
         id="path3455"
         inkscape:connector-curvature="0" /><path
         d="m 1091.01,502.621 -8.58,4.949 18.32,5.961 8.58,-4.945 -18.32,-5.965"
         style="fill:#4f4c4c;fill-opacity:1;fill-rule:nonzero;stroke:none"
         id="path3457"
         inkscape:connector-curvature="0" /><path
         d="m 1344.36,486.922 -19.48,5.293 8.99,5.183 19.48,-5.289 -8.99,-5.187 m -233.64,4.34 -1.41,0.808 19.28,5.41 1.37,-0.792 -19.24,-5.426"
         style="fill:#4f4c4c;fill-opacity:1;fill-rule:nonzero;stroke:none"
         id="path3459"
         inkscape:connector-curvature="0" /><path
         d="m 1233.11,422.75 0,2.66 8.41,2.195 -8.41,-4.855"
         style="fill:#4f4c4c;fill-opacity:1;fill-rule:nonzero;stroke:none"
         id="path3461"
         inkscape:connector-curvature="0" /><path
         d="m 1225.74,425.496 -1.87,0.52 -104.24,60.105 19.24,5.43 86.87,-50.094 0,-15.961"
         style="fill:#bebdbd;fill-opacity:1;fill-rule:nonzero;stroke:none"
         id="path3463"
         inkscape:connector-curvature="0" /><path
         d="m 1231.32,421.719 -7.45,4.297 1.87,-0.52 0,15.961 5.58,-3.215 1.79,1.031 0,-16.523 -1.79,-1.031 m -111.69,64.402 -8.91,5.141 19.24,5.426 8.91,-5.137 -19.24,-5.43"
         style="fill:#4f4c4c;fill-opacity:1;fill-rule:nonzero;stroke:none"
         id="path3465"
         inkscape:connector-curvature="0" /><path
         d="m 605.438,664.063 c -180.489,0 -327.325,71.257 -327.325,158.847 l 6.438,0 c 0,-84.043 143.945,-152.422 320.887,-152.422 176.925,0 320.878,68.379 320.878,152.422 l 6.426,0 c 0,-87.59 -146.824,-158.847 -327.304,-158.847"
         style="fill:#4f4c4c;fill-opacity:1;fill-rule:nonzero;stroke:none"
         id="path3467"
         inkscape:connector-curvature="0" /><path
         d="m 756.199,702.227 c -99.578,0 -180.586,54.14 -180.586,120.683 l 6.43,0 c 0,-63 78.133,-114.258 174.156,-114.258 96.035,0 174.172,51.258 174.172,114.258 l 6.426,0 c 0,-66.543 -81.004,-120.683 -180.598,-120.683"
         style="fill:#4f4c4c;fill-opacity:1;fill-rule:nonzero;stroke:none"
         id="path3469"
         inkscape:connector-curvature="0" /><path
         d="m 1088.47,702.227 c -89.376,0 -162.083,54.14 -162.083,120.683 l 6.426,0 c 0,-63 69.837,-114.258 155.657,-114.258 85.82,0 155.64,51.258 155.64,114.258 l 6.44,0 c 0,-66.543 -72.71,-120.683 -162.08,-120.683"
         style="fill:#4f4c4c;fill-opacity:1;fill-rule:nonzero;stroke:none"
         id="path3471"
         inkscape:connector-curvature="0" /><path
         d="m 1866.7,702.227 c -179.01,0 -324.64,54.14 -324.64,120.683 l 6.43,0 c 0,-63 142.75,-114.258 318.21,-114.258 175.44,0 318.19,51.258 318.19,114.258 l 6.43,0 c 0,-66.543 -145.63,-120.683 -324.62,-120.683"
         style="fill:#4f4c4c;fill-opacity:1;fill-rule:nonzero;stroke:none"
         id="path3473"
         inkscape:connector-curvature="0" /><path
         d="m 1713.94,732.637 c -95.71,0 -173.54,40.5 -173.54,90.273 l 6.43,0 c 0,-46.23 74.97,-83.847 167.11,-83.847 92.12,0 167.1,37.617 167.1,83.847 l 6.42,0 c 0,-49.773 -77.83,-90.273 -173.52,-90.273"
         style="fill:#4f4c4c;fill-opacity:1;fill-rule:nonzero;stroke:none"
         id="path3475"
         inkscape:connector-curvature="0" /><path
         d="m 1396.75,702.227 c -81.91,0 -148.53,54.14 -148.53,120.683 l 6.44,0 c 0,-63 63.75,-114.258 142.09,-114.258 78.34,0 142.09,51.258 142.09,114.258 l 6.42,0 c 0,-66.543 -66.62,-120.683 -148.51,-120.683"
         style="fill:#4f4c4c;fill-opacity:1;fill-rule:nonzero;stroke:none"
         id="path3477"
         inkscape:connector-curvature="0" /><path
         d="m 1083.19,702.227 c -89.381,0 -162.085,54.14 -162.085,120.683 l 6.422,0 c 0,-63 69.836,-114.258 155.663,-114.258 l 0,-6.425"
         style="fill:#4f4c4c;fill-opacity:1;fill-rule:nonzero;stroke:none"
         id="path3479"
         inkscape:connector-curvature="0" /><path
         d="m 335.156,1066.79 -133.039,0 c -14.695,0 -26.637,-11.91 -26.637,-26.6 l 0,-204.057 c 0,-14.695 11.942,-26.613 26.637,-26.613 l 168.567,0 c 14.66,0 26.601,11.918 26.601,26.613 l 0,168.567 -62.129,62.09"
         style="fill:#ffffff;fill-opacity:1;fill-rule:nonzero;stroke:none"
         id="path3481"
         inkscape:connector-curvature="0" /><path
         d="m 202.117,1063.33 c -12.793,0 -23.179,-10.38 -23.179,-23.14 l 0,-204.057 c 0,-12.754 10.386,-23.133 23.179,-23.133 l 168.567,0 c 12.746,0 23.125,10.379 23.125,23.133 l 0,167.127 -60.039,60.07 -131.653,0 z m 168.567,-257.267 -168.567,0 c -16.597,0 -30.078,13.48 -30.078,30.07 l 0,204.057 c 0,16.56 13.481,30.08 30.078,30.08 l 133.039,0 c 0.957,0 1.824,-0.39 2.473,-1.03 l 62.129,-62.1 c 0.64,-0.65 1.004,-1.53 1.004,-2.44 l 0,-168.567 c 0,-16.59 -13.489,-30.07 -30.078,-30.07"
         style="fill:#4f4c4c;fill-opacity:1;fill-rule:nonzero;stroke:none"
         id="path3483"
         inkscape:connector-curvature="0" /><path
         d="m 380.645,995.801 -45.489,0 c -4.863,0 -8.855,3.972 -8.855,8.889 l 0,48.26"
         style="fill:#ffffff;fill-opacity:1;fill-rule:nonzero;stroke:none"
         id="path3485"
         inkscape:connector-curvature="0" /><path
         d="m 380.645,992.344 -45.489,0 c -6.789,0 -12.324,5.539 -12.324,12.346 l 0,48.26 c 0,1.89 1.543,3.44 3.469,3.44 1.922,0 3.465,-1.55 3.465,-3.44 l 0,-48.26 c 0,-2.98 2.453,-5.42 5.39,-5.42 l 45.489,0 c 1.914,0 3.457,-1.555 3.457,-3.469 0,-1.914 -1.543,-3.457 -3.457,-3.457"
         style="fill:#4f4c4c;fill-opacity:1;fill-rule:nonzero;stroke:none"
         id="path3487"
         inkscape:connector-curvature="0" /><path
         d="m 270.266,1024.9 -66.672,0 c -1.946,0 -3.477,1.55 -3.477,3.45 0,1.92 1.531,3.47 3.477,3.47 l 66.672,0 c 1.922,0 3.445,-1.55 3.445,-3.47 0,-1.9 -1.523,-3.45 -3.445,-3.45"
         style="fill:#918f90;fill-opacity:1;fill-rule:nonzero;stroke:none"
         id="path3489"
         inkscape:connector-curvature="0" /><path
         d="m 270.266,998.27 -66.672,0 c -1.946,0 -3.477,1.554 -3.477,3.46 0,1.92 1.531,3.47 3.477,3.47 l 66.672,0 c 1.922,0 3.445,-1.55 3.445,-3.47 0,-1.906 -1.523,-3.46 -3.445,-3.46"
         style="fill:#918f90;fill-opacity:1;fill-rule:nonzero;stroke:none"
         id="path3491"
         inkscape:connector-curvature="0" /><path
         d="m 270.266,971.66 -66.672,0 c -1.946,0 -3.477,1.555 -3.477,3.469 0,1.922 1.531,3.457 3.477,3.457 l 66.672,0 c 1.922,0 3.445,-1.535 3.445,-3.457 0,-1.914 -1.523,-3.469 -3.445,-3.469"
         style="fill:#918f90;fill-opacity:1;fill-rule:nonzero;stroke:none"
         id="path3493"
         inkscape:connector-curvature="0" /><path
         d="m 270.266,945.051 -66.672,0 c -1.946,0 -3.477,1.551 -3.477,3.472 0,1.907 1.531,3.457 3.477,3.457 l 66.672,0 c 1.922,0 3.445,-1.55 3.445,-3.457 0,-1.921 -1.523,-3.472 -3.445,-3.472"
         style="fill:#918f90;fill-opacity:1;fill-rule:nonzero;stroke:none"
         id="path3495"
         inkscape:connector-curvature="0" /><path
         d="m 270.266,918.43 -66.672,0 c -1.946,0 -3.477,1.543 -3.477,3.457 0,1.922 1.531,3.472 3.477,3.472 l 66.672,0 c 1.922,0 3.445,-1.55 3.445,-3.472 0,-1.914 -1.523,-3.457 -3.445,-3.457"
         style="fill:#918f90;fill-opacity:1;fill-rule:nonzero;stroke:none"
         id="path3497"
         inkscape:connector-curvature="0" /><path
         d="m 270.266,891.797 -66.672,0 c -1.946,0 -3.477,1.562 -3.477,3.469 0,1.922 1.531,3.472 3.477,3.472 l 66.672,0 c 1.922,0 3.445,-1.55 3.445,-3.472 0,-1.907 -1.523,-3.469 -3.445,-3.469"
         style="fill:#918f90;fill-opacity:1;fill-rule:nonzero;stroke:none"
         id="path3499"
         inkscape:connector-curvature="0" /><path
         d="m 270.266,865.188 -66.672,0 c -1.946,0 -3.477,1.55 -3.477,3.484 0,1.902 1.531,3.445 3.477,3.445 l 66.672,0 c 1.922,0 3.445,-1.543 3.445,-3.445 0,-1.934 -1.523,-3.484 -3.445,-3.484"
         style="fill:#918f90;fill-opacity:1;fill-rule:nonzero;stroke:none"
         id="path3501"
         inkscape:connector-curvature="0" /><path
         d="m 270.266,838.574 -66.672,0 c -1.946,0 -3.477,1.543 -3.477,3.477 0,1.894 1.531,3.437 3.477,3.437 l 66.672,0 c 1.922,0 3.445,-1.543 3.445,-3.437 0,-1.934 -1.523,-3.477 -3.445,-3.477"
         style="fill:#918f90;fill-opacity:1;fill-rule:nonzero;stroke:none"
         id="path3503"
         inkscape:connector-curvature="0" /><path
         d="m 371.758,945.051 -66.653,0 c -1.921,0 -3.464,1.551 -3.464,3.472 0,1.907 1.543,3.457 3.464,3.457 l 66.653,0 c 1.914,0 3.496,-1.55 3.496,-3.457 0,-1.921 -1.582,-3.472 -3.496,-3.472"
         style="fill:#918f90;fill-opacity:1;fill-rule:nonzero;stroke:none"
         id="path3505"
         inkscape:connector-curvature="0" /><path
         d="m 371.758,918.43 -66.653,0 c -1.921,0 -3.464,1.543 -3.464,3.457 0,1.922 1.543,3.472 3.464,3.472 l 66.653,0 c 1.914,0 3.496,-1.55 3.496,-3.472 0,-1.914 -1.582,-3.457 -3.496,-3.457"
         style="fill:#918f90;fill-opacity:1;fill-rule:nonzero;stroke:none"
         id="path3507"
         inkscape:connector-curvature="0" /><path
         d="m 371.758,891.797 -66.653,0 c -1.921,0 -3.464,1.562 -3.464,3.469 0,1.922 1.543,3.472 3.464,3.472 l 66.653,0 c 1.914,0 3.496,-1.55 3.496,-3.472 0,-1.907 -1.582,-3.469 -3.496,-3.469"
         style="fill:#918f90;fill-opacity:1;fill-rule:nonzero;stroke:none"
         id="path3509"
         inkscape:connector-curvature="0" /><path
         d="m 371.758,865.188 -66.653,0 c -1.921,0 -3.464,1.55 -3.464,3.484 0,1.902 1.543,3.445 3.464,3.445 l 66.653,0 c 1.914,0 3.496,-1.543 3.496,-3.445 0,-1.934 -1.582,-3.484 -3.496,-3.484"
         style="fill:#918f90;fill-opacity:1;fill-rule:nonzero;stroke:none"
         id="path3511"
         inkscape:connector-curvature="0" /><path
         d="m 371.758,838.574 -66.653,0 c -1.921,0 -3.464,1.543 -3.464,3.477 0,1.894 1.543,3.437 3.464,3.437 l 66.653,0 c 1.914,0 3.496,-1.543 3.496,-3.437 0,-1.934 -1.582,-3.477 -3.496,-3.477"
         style="fill:#918f90;fill-opacity:1;fill-rule:nonzero;stroke:none"
         id="path3513"
         inkscape:connector-curvature="0" /><path
         d="m 648.594,1066.82 -133.067,0 c -14.726,0 -26.632,-11.93 -26.632,-26.64 l 0,-204.02 c 0,-14.715 11.906,-26.617 26.632,-26.617 l 168.528,0 c 14.722,0 26.629,11.902 26.629,26.617 l 0,168.56 -62.09,62.1"
         style="fill:#ffffff;fill-opacity:1;fill-rule:nonzero;stroke:none"
         id="path3515"
         inkscape:connector-curvature="0" /><path
         d="m 515.527,1063.34 c -12.761,0 -23.156,-10.39 -23.156,-23.16 l 0,-204.02 c 0,-12.762 10.395,-23.172 23.156,-23.172 l 168.528,0 c 12.769,0 23.172,10.41 23.172,23.172 l 0,167.11 -60.059,60.07 -131.641,0 z m 168.528,-257.277 -168.528,0 c -16.589,0 -30.089,13.515 -30.089,30.097 l 0,204.02 c 0,16.6 13.5,30.09 30.089,30.09 l 133.067,0 c 0.918,0 1.804,-0.37 2.453,-1.01 l 62.117,-62.09 c 0.637,-0.65 0.984,-1.53 0.984,-2.45 l 0,-168.56 c 0,-16.582 -13.484,-30.097 -30.093,-30.097"
         style="fill:#4f4c4c;fill-opacity:1;fill-rule:nonzero;stroke:none"
         id="path3517"
         inkscape:connector-curvature="0" /><path
         d="m 694.07,995.828 -45.476,0 c -4.903,0 -8.86,3.969 -8.86,8.872 l 0,48.24"
         style="fill:#ffffff;fill-opacity:1;fill-rule:nonzero;stroke:none"
         id="path3519"
         inkscape:connector-curvature="0" /><path
         d="m 694.07,992.355 -45.476,0 c -6.817,0 -12.332,5.536 -12.332,12.345 l 0,48.24 c 0,1.92 1.558,3.48 3.472,3.48 1.899,0 3.457,-1.56 3.457,-3.48 l 0,-48.24 c 0,-2.98 2.414,-5.403 5.403,-5.403 l 45.476,0 c 1.907,0 3.469,-1.555 3.469,-3.469 0,-1.922 -1.562,-3.473 -3.469,-3.473"
         style="fill:#4f4c4c;fill-opacity:1;fill-rule:nonzero;stroke:none"
         id="path3521"
         inkscape:connector-curvature="0" /><path
         d="m 644.297,872.051 3.44531,0 0,54.3672 -3.44531,0 0,-54.3672 z"
         style="fill:#4f4c4c;fill-opacity:1;fill-rule:nonzero;stroke:none"
         id="path3523"
         inkscape:connector-curvature="0" /><path
         d="m 647.742,924.773 -3.445,0 c 0,34.122 -12.754,49.321 -41.289,49.321 l 0,3.457 c 30.515,0 44.734,-16.77 44.734,-52.778"
         style="fill:#4f4c4c;fill-opacity:1;fill-rule:nonzero;stroke:none"
         id="path3525"
         inkscape:connector-curvature="0" /><path
         d="m 553.828,870.41 3.47656,0 0,54.3633 -3.47656,0 0,-54.3633 z"
         style="fill:#4f4c4c;fill-opacity:1;fill-rule:nonzero;stroke:none"
         id="path3527"
         inkscape:connector-curvature="0" /><path
         d="m 557.305,924.773 -3.477,0 c 0,36.008 14.231,52.778 44.746,52.778 l 0,-3.457 c -28.547,0 -41.269,-15.199 -41.269,-49.321"
         style="fill:#4f4c4c;fill-opacity:1;fill-rule:nonzero;stroke:none"
         id="path3529"
         inkscape:connector-curvature="0" /><path
         d="m 615.645,975.82 c 0,-9.414 -7.625,-17.082 -17.071,-17.082 -9.441,0 -17.09,7.668 -17.09,17.082 0,9.434 7.649,17.078 17.09,17.078 9.446,0 17.071,-7.644 17.071,-17.078"
         style="fill:#3ca3b1;fill-opacity:1;fill-rule:nonzero;stroke:none"
         id="path3531"
         inkscape:connector-curvature="0" /><path
         d="m 569.219,870.391 c 0,-9.422 -7.617,-17.063 -17.063,-17.063 -9.429,0 -17.066,7.641 -17.066,17.063 0,9.422 7.637,17.089 17.066,17.089 9.446,0 17.063,-7.667 17.063,-17.089"
         style="fill:#3ca3b1;fill-opacity:1;fill-rule:nonzero;stroke:none"
         id="path3533"
         inkscape:connector-curvature="0" /><path
         d="m 580.105,917.004 c 0,-2.695 -2.222,-4.895 -4.929,-4.895 l -39.231,0 c -2.722,0 -4.929,2.2 -4.929,4.895 l 0,15.535 c 0,2.727 2.207,4.922 4.929,4.922 l 39.231,0 c 2.707,0 4.929,-2.195 4.929,-4.922 l 0,-15.535"
         style="fill:#4f4c4c;fill-opacity:1;fill-rule:nonzero;stroke:none"
         id="path3535"
         inkscape:connector-curvature="0" /><path
         d="m 670.547,917.004 c 0,-2.695 -2.18,-4.895 -4.902,-4.895 l -39.25,0 c -2.723,0 -4.903,2.2 -4.903,4.895 l 0,15.535 c 0,2.727 2.18,4.922 4.903,4.922 l 39.25,0 c 2.722,0 4.902,-2.195 4.902,-4.922 l 0,-15.535"
         style="fill:#4f4c4c;fill-opacity:1;fill-rule:nonzero;stroke:none"
         id="path3537"
         inkscape:connector-curvature="0" /><path
         d="m 663.086,870.391 c 0,-9.422 -7.637,-17.063 -17.051,-17.063 -9.441,0 -17.082,7.641 -17.082,17.063 0,9.422 7.641,17.089 17.082,17.089 9.414,0 17.051,-7.667 17.051,-17.089"
         style="fill:#3ca3b1;fill-opacity:1;fill-rule:nonzero;stroke:none"
         id="path3539"
         inkscape:connector-curvature="0" /><path
         d="m 961.992,1066.77 -133.086,0 c -14.687,0 -26.609,-11.89 -26.609,-26.6 l 0,-204.057 c 0,-14.675 11.922,-26.582 26.609,-26.582 l 168.567,0 c 14.677,0 26.627,11.907 26.627,26.582 l 0,168.577 -62.108,62.08"
         style="fill:#ffffff;fill-opacity:1;fill-rule:nonzero;stroke:none"
         id="path3541"
         inkscape:connector-curvature="0" /><path
         d="m 828.906,1063.32 c -12.734,0 -23.144,-10.4 -23.144,-23.15 l 0,-204.057 c 0,-12.773 10.41,-23.144 23.144,-23.144 l 168.567,0 c 12.767,0 23.157,10.371 23.157,23.144 l 0,167.147 -60.044,60.06 -131.68,0 z m 168.567,-257.257 -168.567,0 c -16.57,0 -30.058,13.48 -30.058,30.05 l 0,204.057 c 0,16.6 13.488,30.08 30.058,30.08 l 133.086,0 c 0.918,0 1.785,-0.37 2.442,-0.99 l 62.066,-62.13 c 0.7,-0.65 1.02,-1.52 1.02,-2.44 l 0,-168.577 c 0,-16.57 -13.44,-30.05 -30.047,-30.05"
         style="fill:#4f4c4c;fill-opacity:1;fill-rule:nonzero;stroke:none"
         id="path3543"
         inkscape:connector-curvature="0" /><path
         d="m 1007.44,995.813 -45.467,0 c -4.903,0 -8.887,3.945 -8.887,8.877 l 0,48.23"
         style="fill:#ffffff;fill-opacity:1;fill-rule:nonzero;stroke:none"
         id="path3545"
         inkscape:connector-curvature="0" /><path
         d="m 1007.44,992.355 -45.467,0 c -6.805,0 -12.344,5.516 -12.344,12.335 l 0,48.23 c 0,1.92 1.562,3.47 3.457,3.47 1.934,0 3.477,-1.55 3.477,-3.47 l 0,-48.23 c 0,-2.98 2.414,-5.42 5.41,-5.42 l 45.467,0 c 1.9,0 3.46,-1.543 3.46,-3.457 0,-1.926 -1.56,-3.458 -3.46,-3.458"
         style="fill:#4f4c4c;fill-opacity:1;fill-rule:nonzero;stroke:none"
         id="path3547"
         inkscape:connector-curvature="0" /><path
         d="m 852.473,842.012 3.45703,0 0,133.789 -3.45703,0 0,-133.789 z"
         style="fill:#3ca3b1;fill-opacity:1;fill-rule:nonzero;stroke:none"
         id="path3549"
         inkscape:connector-curvature="0" /><path
         d="m 835.715,864.949 162.266,0 0,3.46875 -162.266,0 0,-3.46875 z"
         style="fill:#3ca3b1;fill-opacity:1;fill-rule:nonzero;stroke:none"
         id="path3551"
         inkscape:connector-curvature="0" /><path
         d="m 855.488,868.555 -2.597,2.297 22.246,25.195 26.34,24.141 34.519,36.832 42.317,-24.2 -1.704,-2.965 -39.949,22.79 -32.765,-34.93 -26.29,-24.11 -22.117,-25.05"
         style="fill:#4f4c4c;fill-opacity:1;fill-rule:nonzero;stroke:none"
         id="path3553"
         inkscape:connector-curvature="0" /><path
         d="m 917.578,924.758 c 0,-4.121 -3.367,-7.473 -7.48,-7.473 -4.114,0 -7.461,3.352 -7.461,7.473 0,4.137 3.347,7.449 7.461,7.449 4.113,0 7.48,-3.312 7.48,-7.449"
         style="fill:#ffffff;fill-opacity:1;fill-rule:nonzero;stroke:none"
         id="path3555"
         inkscape:connector-curvature="0" /><path
         d="m 910.098,930.48 c -3.118,0 -5.703,-2.558 -5.703,-5.722 0,-3.156 2.585,-5.735 5.703,-5.735 3.172,0 5.722,2.579 5.722,5.735 0,3.164 -2.55,5.722 -5.722,5.722 z m 0,-14.933 c -5.071,0 -9.18,4.148 -9.18,9.211 0,5.097 4.109,9.187 9.18,9.187 5.105,0 9.199,-4.09 9.199,-9.187 0,-5.063 -4.094,-9.211 -9.199,-9.211"
         style="fill:#4f4c4c;fill-opacity:1;fill-rule:nonzero;stroke:none"
         id="path3557"
         inkscape:connector-curvature="0" /><path
         d="m 883.895,894.91 c 0,-4.129 -3.329,-7.449 -7.442,-7.449 -4.129,0 -7.461,3.32 -7.461,7.449 0,4.113 3.332,7.445 7.461,7.445 4.113,0 7.442,-3.332 7.442,-7.445"
         style="fill:#ffffff;fill-opacity:1;fill-rule:nonzero;stroke:none"
         id="path3559"
         inkscape:connector-curvature="0" /><path
         d="m 876.453,900.613 c -3.172,0 -5.762,-2.527 -5.762,-5.703 0,-3.18 2.59,-5.762 5.762,-5.762 3.137,0 5.695,2.582 5.695,5.762 0,3.176 -2.558,5.703 -5.695,5.703 z m 0,-14.898 c -5.098,0 -9.18,4.109 -9.18,9.195 0,5.051 4.082,9.16 9.18,9.16 5.07,0 9.184,-4.109 9.184,-9.16 0,-5.086 -4.114,-9.195 -9.184,-9.195"
         style="fill:#4f4c4c;fill-opacity:1;fill-rule:nonzero;stroke:none"
         id="path3561"
         inkscape:connector-curvature="0" /><path
         d="m 943.789,954.844 c 0,-4.121 -3.34,-7.461 -7.461,-7.461 -4.133,0 -7.461,3.34 -7.461,7.461 0,4.14 3.328,7.441 7.461,7.441 4.121,0 7.461,-3.301 7.461,-7.441"
         style="fill:#ffffff;fill-opacity:1;fill-rule:nonzero;stroke:none"
         id="path3563"
         inkscape:connector-curvature="0" /><path
         d="m 936.328,960.605 c -3.183,0 -5.742,-2.585 -5.742,-5.761 0,-3.133 2.559,-5.723 5.742,-5.723 3.164,0 5.715,2.59 5.715,5.723 0,3.176 -2.551,5.761 -5.715,5.761 z m 0,-14.968 c -5.051,0 -9.199,4.16 -9.199,9.207 0,5.09 4.148,9.179 9.199,9.179 5.09,0 9.192,-4.089 9.192,-9.179 0,-5.047 -4.102,-9.207 -9.192,-9.207"
         style="fill:#4f4c4c;fill-opacity:1;fill-rule:nonzero;stroke:none"
         id="path3565"
         inkscape:connector-curvature="0" /><path
         d="m 984.922,931.348 c 0,-4.129 -3.352,-7.469 -7.461,-7.469 -4.109,0 -7.473,3.34 -7.473,7.469 0,4.09 3.364,7.453 7.473,7.453 4.109,0 7.461,-3.363 7.461,-7.453"
         style="fill:#ffffff;fill-opacity:1;fill-rule:nonzero;stroke:none"
         id="path3567"
         inkscape:connector-curvature="0" /><path
         d="m 977.461,937.063 c -3.176,0 -5.715,-2.59 -5.715,-5.715 0,-3.184 2.539,-5.743 5.715,-5.743 3.176,0 5.723,2.559 5.723,5.743 0,3.125 -2.547,5.715 -5.723,5.715 z m 0,-14.922 c -5.066,0 -9.191,4.097 -9.191,9.207 0,5.07 4.125,9.179 9.191,9.179 5.105,0 9.187,-4.109 9.187,-9.179 0,-5.11 -4.082,-9.207 -9.187,-9.207"
         style="fill:#4f4c4c;fill-opacity:1;fill-rule:nonzero;stroke:none"
         id="path3569"
         inkscape:connector-curvature="0" /><path
         d="m 1275.4,1066.81 -133.05,0 c -14.73,0 -26.64,-11.93 -26.64,-26.61 l 0,-204.067 c 0,-14.695 11.91,-26.613 26.64,-26.613 l 168.52,0 c 14.74,0 26.64,11.918 26.64,26.613 l 0,168.567 -62.11,62.11"
         style="fill:#ffffff;fill-opacity:1;fill-rule:nonzero;stroke:none"
         id="path3571"
         inkscape:connector-curvature="0" /><path
         d="m 1142.35,1063.34 c -12.77,0 -23.18,-10.39 -23.18,-23.14 l 0,-204.067 c 0,-12.754 10.41,-23.133 23.18,-23.133 l 168.52,0 c 12.78,0 23.16,10.379 23.16,23.133 l 0,167.127 -60.05,60.08 -131.63,0 z m 168.52,-257.277 -168.52,0 c -16.62,0 -30.1,13.488 -30.1,30.07 l 0,204.067 c 0,16.57 13.48,30.07 30.1,30.07 l 133.05,0 c 0.92,0 1.78,-0.37 2.47,-1.03 l 62.03,-62.09 c 0.7,-0.66 1.03,-1.54 1.03,-2.45 l 0,-168.567 c 0,-16.582 -13.44,-30.07 -30.06,-30.07"
         style="fill:#4f4c4c;fill-opacity:1;fill-rule:nonzero;stroke:none"
         id="path3573"
         inkscape:connector-curvature="0" /><path
         d="m 1320.87,995.801 -45.49,0 c -4.87,0 -8.9,3.972 -8.9,8.899 l 0,48.25"
         style="fill:#ffffff;fill-opacity:1;fill-rule:nonzero;stroke:none"
         id="path3575"
         inkscape:connector-curvature="0" /><path
         d="m 1320.87,992.344 -45.49,0 c -6.8,0 -12.35,5.539 -12.35,12.356 l 0,48.25 c 0,1.91 1.57,3.44 3.45,3.44 1.95,0 3.48,-1.53 3.48,-3.44 l 0,-48.25 c 0,-2.99 2.41,-5.423 5.42,-5.423 l 45.49,0 c 1.87,0 3.44,-1.562 3.44,-3.476 0,-1.914 -1.57,-3.457 -3.44,-3.457"
         style="fill:#4f4c4c;fill-opacity:1;fill-rule:nonzero;stroke:none"
         id="path3577"
         inkscape:connector-curvature="0" /><path
         d="m 1197.74,900 -37.05,18.613 0,2.547 37.05,20.766 0,-6.457 -27.66,-15.34 0,-0.168 27.66,-13.543 0,-6.418"
         style="fill:#3ca3b1;fill-opacity:1;fill-rule:nonzero;stroke:none"
         id="path3579"
         inkscape:connector-curvature="0" /><path
         d="m 1244.37,956.34 -29.67,-72.07 -6.57,0 29.57,72.07 6.67,0"
         style="fill:#3ca3b1;fill-opacity:1;fill-rule:nonzero;stroke:none"
         id="path3581"
         inkscape:connector-curvature="0" /><path
         d="M 1292.51,918.613 1255.44,900 l 0,6.418 27.76,13.437 0,0.274 -27.76,15.34 0,6.457 37.07,-20.766 0,-2.547"
         style="fill:#3ca3b1;fill-opacity:1;fill-rule:nonzero;stroke:none"
         id="path3583"
         inkscape:connector-curvature="0" /><path
         d="m 1588.78,1066.77 -133.05,0 c -14.71,0 -26.61,-11.89 -26.61,-26.6 l 0,-204.057 c 0,-14.707 11.9,-26.621 26.61,-26.621 l 168.54,0 c 14.71,0 26.61,11.914 26.61,26.621 l 0,168.577 -62.1,62.08"
         style="fill:#ffffff;fill-opacity:1;fill-rule:nonzero;stroke:none"
         id="path3585"
         inkscape:connector-curvature="0" /><path
         d="m 1455.73,1063.32 c -12.76,0 -23.13,-10.39 -23.13,-23.15 l 0,-204.057 c 0,-12.773 10.37,-23.144 23.13,-23.144 l 168.54,0 c 12.8,0 23.14,10.371 23.14,23.144 l 0,167.107 -60.05,60.1 -131.63,0 z m 168.54,-257.257 -168.54,0 c -16.6,0 -30.09,13.449 -30.09,30.05 l 0,204.057 c 0,16.56 13.49,30.08 30.09,30.08 l 133.05,0 c 0.95,0 1.84,-0.39 2.43,-1.04 l 62.13,-62.08 c 0.67,-0.65 1.02,-1.52 1.02,-2.44 l 0,-168.577 c 0,-16.601 -13.48,-30.05 -30.09,-30.05"
         style="fill:#4f4c4c;fill-opacity:1;fill-rule:nonzero;stroke:none"
         id="path3587"
         inkscape:connector-curvature="0" /><path
         d="m 1634.26,995.813 -45.48,0 c -4.89,0 -8.82,3.945 -8.82,8.847 l 0,48.27"
         style="fill:#ffffff;fill-opacity:1;fill-rule:nonzero;stroke:none"
         id="path3589"
         inkscape:connector-curvature="0" /><path
         d="m 1634.26,992.336 -45.48,0 c -6.81,0 -12.32,5.547 -12.32,12.324 l 0,48.27 c 0,1.91 1.56,3.45 3.5,3.45 1.87,0 3.42,-1.54 3.42,-3.45 l 0,-48.27 c 0,-2.98 2.43,-5.41 5.4,-5.41 l 45.48,0 c 1.94,0 3.46,-1.523 3.46,-3.437 0,-1.926 -1.52,-3.477 -3.46,-3.477"
         style="fill:#4f4c4c;fill-opacity:1;fill-rule:nonzero;stroke:none"
         id="path3591"
         inkscape:connector-curvature="0" /><path
         d="m 1566.45,864.895 c -1.46,0 -2.91,0.718 -3.74,2.07 l -22.12,35.32 c -1.26,2.063 -0.66,4.785 1.41,6.067 2.08,1.304 4.79,0.664 6.09,-1.399 l 22.12,-35.305 c 1.25,-2.058 0.65,-4.785 -1.4,-6.062 l -2.36,-0.691"
         style="fill:#3ca3b1;fill-opacity:1;fill-rule:nonzero;stroke:none"
         id="path3593"
         inkscape:connector-curvature="0" /><path
         d="m 1517.86,864.895 -2.28,0.691 c -2.09,1.277 -2.74,4.004 -1.42,6.062 l 22.12,35.305 c 1.28,2.063 3.98,2.703 6.04,1.399 2.09,-1.282 2.72,-4.004 1.42,-6.067 l -22.09,-35.32 c -0.88,-1.352 -2.28,-2.07 -3.79,-2.07"
         style="fill:#3ca3b1;fill-opacity:1;fill-rule:nonzero;stroke:none"
         id="path3595"
         inkscape:connector-curvature="0" /><path
         d="m 1502.45,966.387 0,-57.371 79.43,0 0,57.371 -79.43,0 z m 79.43,-66.192 -79.43,0 c -4.86,0 -8.81,3.977 -8.81,8.821 l 0,57.371 c 0,4.863 3.95,8.828 8.81,8.828 l 79.43,0 c 4.89,0 8.83,-3.965 8.83,-8.828 l 0,-57.371 c 0,-4.844 -3.94,-8.821 -8.83,-8.821"
         style="fill:#3ca3b1;fill-opacity:1;fill-rule:nonzero;stroke:none"
         id="path3597"
         inkscape:connector-curvature="0" /><path
         d="m 1586.3,964.27 c 0,-2.375 -1.89,-4.204 -4.2,-4.204 l -79.84,0 c -2.32,0 -4.18,1.829 -4.18,4.204 l 0,2.046 c 0,2.344 1.86,4.204 4.18,4.204 l 79.84,0 c 2.31,0 4.2,-1.86 4.2,-4.204 l 0,-2.046"
         style="fill:#3ca3b1;fill-opacity:1;fill-rule:nonzero;stroke:none"
         id="path3599"
         inkscape:connector-curvature="0" /><path
         d="m 1581.88,966.316 -79.62,-0.211 0.19,-1.835 79.43,0.171 0,1.875 z m 0.22,-10.679 -79.84,0 c -4.75,0 -8.62,3.828 -8.62,8.633 l 0,2.046 c 0,4.758 3.87,8.633 8.62,8.633 l 79.84,0 c 4.76,0 8.61,-3.875 8.61,-8.633 l 0,-2.046 c 0,-4.805 -3.85,-8.633 -8.61,-8.633"
         style="fill:#3ca3b1;fill-opacity:1;fill-rule:nonzero;stroke:none"
         id="path3601"
         inkscape:connector-curvature="0" /><path
         d="m 1902.21,1066.8 -133.12,0 c -14.68,0 -26.61,-11.91 -26.61,-26.62 l 0,-204.035 c 0,-14.7 11.93,-26.614 26.61,-26.614 l 168.58,0 c 14.67,0 26.64,11.914 26.64,26.614 l 0,168.545 -62.1,62.11"
         style="fill:#ffffff;fill-opacity:1;fill-rule:nonzero;stroke:none"
         id="path3603"
         inkscape:connector-curvature="0" /><path
         d="m 1769.09,1063.32 c -12.73,0 -23.13,-10.37 -23.13,-23.14 l 0,-204.035 c 0,-12.778 10.4,-23.157 23.13,-23.157 l 168.58,0 c 12.77,0 23.17,10.379 23.17,23.157 l 0,167.115 -60.06,60.06 -131.69,0 z m 168.58,-257.265 -168.58,0 c -16.54,0 -30.04,13.496 -30.04,30.09 l 0,204.035 c 0,16.59 13.5,30.09 30.04,30.09 l 133.12,0 c 0.91,0 1.79,-0.37 2.44,-1.02 l 62.09,-62.11 c 0.62,-0.66 1,-1.54 1,-2.45 l 0,-168.545 c 0,-16.594 -13.46,-30.09 -30.07,-30.09"
         style="fill:#4f4c4c;fill-opacity:1;fill-rule:nonzero;stroke:none"
         id="path3605"
         inkscape:connector-curvature="0" /><path
         d="m 1947.66,995.813 -45.45,0 c -4.91,0 -8.89,3.96 -8.89,8.877 l 0,48.24"
         style="fill:#ffffff;fill-opacity:1;fill-rule:nonzero;stroke:none"
         id="path3607"
         inkscape:connector-curvature="0" /><path
         d="m 1947.66,992.355 -45.45,0 c -6.82,0 -12.37,5.536 -12.37,12.335 l 0,48.24 c 0,1.93 1.55,3.48 3.48,3.48 1.9,0 3.47,-1.55 3.47,-3.48 l 0,-48.24 c 0,-3 2.41,-5.42 5.42,-5.42 l 45.45,0 c 1.9,0 3.45,-1.543 3.45,-3.457 0,-1.907 -1.55,-3.458 -3.45,-3.458"
         style="fill:#4f4c4c;fill-opacity:1;fill-rule:nonzero;stroke:none"
         id="path3609"
         inkscape:connector-curvature="0" /><path
         d="m 1837.27,1024.92 -66.67,0 c -1.92,0 -3.49,1.56 -3.49,3.44 0,1.91 1.57,3.48 3.49,3.48 l 66.67,0 c 1.89,0 3.47,-1.57 3.47,-3.48 0,-1.88 -1.58,-3.44 -3.47,-3.44"
         style="fill:#918f90;fill-opacity:1;fill-rule:nonzero;stroke:none"
         id="path3611"
         inkscape:connector-curvature="0" /><path
         d="m 1837.27,918.438 -66.67,0 c -1.92,0 -3.49,1.542 -3.49,3.457 0,1.921 1.57,3.476 3.49,3.476 l 66.67,0 c 1.89,0 3.47,-1.555 3.47,-3.476 0,-1.915 -1.58,-3.457 -3.47,-3.457"
         style="fill:#918f90;fill-opacity:1;fill-rule:nonzero;stroke:none"
         id="path3613"
         inkscape:connector-curvature="0" /><path
         d="m 1837.27,891.809 -66.67,0 c -1.92,0 -3.49,1.55 -3.49,3.464 0,1.922 1.57,3.465 3.49,3.465 l 66.67,0 c 1.89,0 3.47,-1.543 3.47,-3.465 0,-1.914 -1.58,-3.464 -3.47,-3.464"
         style="fill:#918f90;fill-opacity:1;fill-rule:nonzero;stroke:none"
         id="path3615"
         inkscape:connector-curvature="0" /><path
         d="m 1837.27,865.203 -66.67,0 c -1.92,0 -3.49,1.535 -3.49,3.442 0,1.929 1.57,3.484 3.49,3.484 l 66.67,0 c 1.89,0 3.47,-1.555 3.47,-3.484 0,-1.907 -1.58,-3.442 -3.47,-3.442"
         style="fill:#918f90;fill-opacity:1;fill-rule:nonzero;stroke:none"
         id="path3617"
         inkscape:connector-curvature="0" /><path
         d="m 1837.27,838.563 -66.67,0 c -1.92,0 -3.49,1.554 -3.49,3.48 0,1.91 1.57,3.465 3.49,3.465 l 66.67,0 c 1.89,0 3.47,-1.555 3.47,-3.465 0,-1.926 -1.58,-3.48 -3.47,-3.48"
         style="fill:#918f90;fill-opacity:1;fill-rule:nonzero;stroke:none"
         id="path3619"
         inkscape:connector-curvature="0" /><path
         d="m 1837.27,947.031 c 0,-4.89 -3.98,-8.879 -8.89,-8.879 l -48.93,0 c -4.9,0 -8.85,3.989 -8.85,8.879 l 0,58.039 c 0,4.89 3.95,8.88 8.85,8.88 l 48.93,0 c 4.91,0 8.89,-3.99 8.89,-8.88 l 0,-58.039"
         style="fill:#3ca3b1;fill-opacity:1;fill-rule:nonzero;stroke:none"
         id="path3621"
         inkscape:connector-curvature="0" /><path
         d="m 1938.77,945.051 -66.65,0 c -1.93,0 -3.48,1.543 -3.48,3.465 0,1.914 1.55,3.457 3.48,3.457 l 66.65,0 c 1.93,0 3.48,-1.543 3.48,-3.457 0,-1.922 -1.55,-3.465 -3.48,-3.465"
         style="fill:#918f90;fill-opacity:1;fill-rule:nonzero;stroke:none"
         id="path3623"
         inkscape:connector-curvature="0" /><path
         d="m 1938.77,918.438 -66.65,0 c -1.93,0 -3.48,1.542 -3.48,3.457 0,1.921 1.55,3.476 3.48,3.476 l 66.65,0 c 1.93,0 3.48,-1.555 3.48,-3.476 0,-1.915 -1.55,-3.457 -3.48,-3.457"
         style="fill:#918f90;fill-opacity:1;fill-rule:nonzero;stroke:none"
         id="path3625"
         inkscape:connector-curvature="0" /><path
         d="m 1938.77,891.809 -66.65,0 c -1.93,0 -3.48,1.55 -3.48,3.464 0,1.922 1.55,3.465 3.48,3.465 l 66.65,0 c 1.93,0 3.48,-1.543 3.48,-3.465 0,-1.914 -1.55,-3.464 -3.48,-3.464"
         style="fill:#918f90;fill-opacity:1;fill-rule:nonzero;stroke:none"
         id="path3627"
         inkscape:connector-curvature="0" /><path
         d="m 1938.77,865.203 -66.65,0 c -1.93,0 -3.48,1.535 -3.48,3.442 0,1.929 1.55,3.484 3.48,3.484 l 66.65,0 c 1.93,0 3.48,-1.555 3.48,-3.484 0,-1.907 -1.55,-3.442 -3.48,-3.442"
         style="fill:#918f90;fill-opacity:1;fill-rule:nonzero;stroke:none"
         id="path3629"
         inkscape:connector-curvature="0" /><path
         d="m 1938.77,838.563 -66.65,0 c -1.93,0 -3.48,1.554 -3.48,3.48 0,1.91 1.55,3.465 3.48,3.465 l 66.65,0 c 1.93,0 3.48,-1.555 3.48,-3.465 0,-1.926 -1.55,-3.48 -3.48,-3.48"
         style="fill:#918f90;fill-opacity:1;fill-rule:nonzero;stroke:none"
         id="path3631"
         inkscape:connector-curvature="0" /><path
         d="m 2215.62,1066.8 -133.09,0 c -14.72,0 -26.6,-11.92 -26.6,-26.62 l 0,-204.047 c 0,-14.715 11.88,-26.621 26.6,-26.621 l 168.54,0 c 14.72,0 26.63,11.906 26.63,26.621 l 0,168.567 -62.08,62.1"
         style="fill:#ffffff;fill-opacity:1;fill-rule:nonzero;stroke:none"
         id="path3633"
         inkscape:connector-curvature="0" /><path
         d="m 2082.53,1063.34 c -12.74,0 -23.16,-10.41 -23.16,-23.16 l 0,-204.047 c 0,-12.742 10.42,-23.145 23.16,-23.145 l 168.54,0 c 12.79,0 23.14,10.403 23.14,23.145 l 0,167.107 -60.04,60.1 -131.64,0 z m 168.54,-257.266 -168.54,0 c -16.59,0 -30.08,13.477 -30.08,30.059 l 0,204.047 c 0,16.6 13.49,30.07 30.08,30.07 l 133.09,0 c 0.9,0 1.78,-0.37 2.46,-1.01 l 62.05,-62.09 c 0.67,-0.67 1.01,-1.54 1.01,-2.45 l 0,-168.567 c 0,-16.582 -13.46,-30.059 -30.07,-30.059"
         style="fill:#4f4c4c;fill-opacity:1;fill-rule:nonzero;stroke:none"
         id="path3635"
         inkscape:connector-curvature="0" /><path
         d="m 2078.88,1041.94 c -2.34,0 -3.53,-2.36 -3.53,-7.1 0,-4.47 1.17,-6.7 3.46,-6.7 2.26,0 3.4,2.28 3.4,6.78 0,4.68 -1.14,7.02 -3.33,7.02 z m -0.27,-15.37 c -1.62,0 -2.9,0.7 -3.81,2.1 -0.9,1.37 -1.36,3.4 -1.36,6.05 0,2.92 0.48,5.1 1.43,6.61 0.96,1.46 2.34,2.22 4.12,2.22 3.43,0 5.15,-2.82 5.15,-8.44 0,-2.77 -0.48,-4.9 -1.46,-6.36 -0.98,-1.45 -2.33,-2.18 -4.07,-2.18"
         style="fill:#3ca3b1;fill-opacity:1;fill-rule:nonzero;stroke:none"
         id="path3637"
         inkscape:connector-curvature="0" /><path
         d="m 2096.4,1026.85 -9.27,0 0,1.66 3.7,0 0,12.73 -3.8,-1.12 0,1.78 5.68,1.73 0,-15.12 3.69,0 0,-1.66"
         style="fill:#3ca3b1;fill-opacity:1;fill-rule:nonzero;stroke:none"
         id="path3639"
         inkscape:connector-curvature="0" /><path
         d="m 2109.06,1026.85 -9.31,0 0,1.66 3.76,0 0,12.73 -3.82,-1.12 0,1.78 5.64,1.73 0,-15.12 3.73,0 0,-1.66"
         style="fill:#3ca3b1;fill-opacity:1;fill-rule:nonzero;stroke:none"
         id="path3641"
         inkscape:connector-curvature="0" /><path
         d="m 2121.71,1026.85 -9.31,0 0,1.66 3.71,0 0,12.73 -3.8,-1.12 0,1.78 5.71,1.73 0,-15.12 3.69,0 0,-1.66"
         style="fill:#3ca3b1;fill-opacity:1;fill-rule:nonzero;stroke:none"
         id="path3643"
         inkscape:connector-curvature="0" /><path
         d="m 2129.47,1041.94 c -2.36,0 -3.5,-2.36 -3.5,-7.1 0,-4.47 1.13,-6.7 3.42,-6.7 2.3,0 3.41,2.28 3.41,6.78 0,4.68 -1.11,7.02 -3.33,7.02 z m -0.26,-15.37 c -1.62,0 -2.91,0.7 -3.8,2.1 -0.92,1.37 -1.4,3.4 -1.4,6.05 0,2.92 0.5,5.1 1.45,6.61 0.95,1.46 2.32,2.22 4.12,2.22 3.44,0 5.14,-2.82 5.14,-8.44 0,-2.77 -0.46,-4.9 -1.44,-6.36 -1,-1.45 -2.31,-2.18 -4.07,-2.18"
         style="fill:#3ca3b1;fill-opacity:1;fill-rule:nonzero;stroke:none"
         id="path3645"
         inkscape:connector-curvature="0" /><path
         d="m 2142.13,1041.94 c -2.34,0 -3.53,-2.36 -3.53,-7.1 0,-4.47 1.14,-6.7 3.44,-6.7 2.27,0 3.42,2.28 3.42,6.78 0,4.68 -1.13,7.02 -3.33,7.02 z m -0.27,-15.37 c -1.63,0 -2.89,0.7 -3.81,2.1 -0.92,1.37 -1.34,3.4 -1.34,6.05 0,2.92 0.44,5.1 1.41,6.61 0.92,1.46 2.32,2.22 4.12,2.22 3.41,0 5.13,-2.82 5.13,-8.44 0,-2.77 -0.49,-4.9 -1.45,-6.36 -0.97,-1.45 -2.32,-2.18 -4.06,-2.18"
         style="fill:#3ca3b1;fill-opacity:1;fill-rule:nonzero;stroke:none"
         id="path3647"
         inkscape:connector-curvature="0" /><path
         d="m 2159.64,1026.85 -9.27,0 0,1.66 3.71,0 0,12.73 -3.82,-1.12 0,1.78 5.7,1.73 0,-15.12 3.68,0 0,-1.66"
         style="fill:#3ca3b1;fill-opacity:1;fill-rule:nonzero;stroke:none"
         id="path3649"
         inkscape:connector-curvature="0" /><path
         d="m 2167.41,1041.94 c -2.34,0 -3.5,-2.36 -3.5,-7.1 0,-4.47 1.14,-6.7 3.44,-6.7 2.26,0 3.39,2.28 3.39,6.78 0,4.68 -1.11,7.02 -3.33,7.02 z m -0.23,-15.37 c -1.65,0 -2.93,0.7 -3.85,2.1 -0.89,1.37 -1.35,3.4 -1.35,6.05 0,2.92 0.48,5.1 1.44,6.61 0.93,1.46 2.3,2.22 4.09,2.22 3.45,0 5.15,-2.82 5.15,-8.44 0,-2.77 -0.45,-4.9 -1.44,-6.36 -0.98,-1.45 -2.31,-2.18 -4.04,-2.18"
         style="fill:#3ca3b1;fill-opacity:1;fill-rule:nonzero;stroke:none"
         id="path3651"
         inkscape:connector-curvature="0" /><path
         d="m 2180.06,1041.94 c -2.35,0 -3.51,-2.36 -3.51,-7.1 0,-4.47 1.15,-6.7 3.46,-6.7 2.26,0 3.41,2.28 3.41,6.78 0,4.68 -1.13,7.02 -3.36,7.02 z m -0.25,-15.37 c -1.65,0 -2.91,0.7 -3.82,2.1 -0.9,1.37 -1.38,3.4 -1.38,6.05 0,2.92 0.49,5.1 1.43,6.61 0.95,1.46 2.34,2.22 4.13,2.22 3.42,0 5.14,-2.82 5.14,-8.44 0,-2.77 -0.47,-4.9 -1.43,-6.36 -0.97,-1.45 -2.33,-2.18 -4.07,-2.18"
         style="fill:#3ca3b1;fill-opacity:1;fill-rule:nonzero;stroke:none"
         id="path3653"
         inkscape:connector-curvature="0" /><path
         d="m 2197.6,1026.85 -9.28,0 0,1.66 3.69,0 0,12.73 -3.79,-1.12 0,1.78 5.67,1.73 0,-15.12 3.71,0 0,-1.66"
         style="fill:#3ca3b1;fill-opacity:1;fill-rule:nonzero;stroke:none"
         id="path3655"
         inkscape:connector-curvature="0" /><path
         d="m 2210.23,1026.85 -9.27,0 0,1.66 3.73,0 0,12.73 -3.83,-1.12 0,1.78 5.69,1.73 0,-15.12 3.68,0 0,-1.66"
         style="fill:#3ca3b1;fill-opacity:1;fill-rule:nonzero;stroke:none"
         id="path3657"
         inkscape:connector-curvature="0" /><path
         d="m 2083.75,998.691 -9.29,0 0,1.649 3.73,0 0,12.77 -3.81,-1.15 0,1.79 5.68,1.73 0,-15.14 3.69,0 0,-1.649"
         style="fill:#3ca3b1;fill-opacity:1;fill-rule:nonzero;stroke:none"
         id="path3659"
         inkscape:connector-curvature="0" /><path
         d="m 2091.52,1013.8 c -2.34,0 -3.52,-2.37 -3.52,-7.12 0,-4.45 1.16,-6.66 3.46,-6.66 2.27,0 3.4,2.25 3.4,6.78 0,4.66 -1.13,7 -3.34,7 z m -0.25,-15.382 c -1.63,0 -2.92,0.703 -3.83,2.102 -0.91,1.37 -1.38,3.4 -1.38,6.04 0,2.92 0.49,5.13 1.44,6.6 0.96,1.51 2.35,2.23 4.13,2.23 3.45,0 5.16,-2.78 5.16,-8.42 0,-2.76 -0.48,-4.89 -1.48,-6.37 -0.95,-1.459 -2.32,-2.182 -4.04,-2.182"
         style="fill:#3ca3b1;fill-opacity:1;fill-rule:nonzero;stroke:none"
         id="path3661"
         inkscape:connector-curvature="0" /><path
         d="m 2109.06,998.691 -9.31,0 0,1.649 3.76,0 0,12.77 -3.82,-1.15 0,1.79 5.64,1.73 0,-15.14 3.73,0 0,-1.649"
         style="fill:#3ca3b1;fill-opacity:1;fill-rule:nonzero;stroke:none"
         id="path3663"
         inkscape:connector-curvature="0" /><path
         d="m 2121.71,998.691 -9.31,0 0,1.649 3.71,0 0,12.77 -3.8,-1.15 0,1.79 5.71,1.73 0,-15.14 3.69,0 0,-1.649"
         style="fill:#3ca3b1;fill-opacity:1;fill-rule:nonzero;stroke:none"
         id="path3665"
         inkscape:connector-curvature="0" /><path
         d="m 2134.35,998.691 -9.3,0 0,1.649 3.72,0 0,12.77 -3.8,-1.15 0,1.79 5.67,1.73 0,-15.14 3.71,0 0,-1.649"
         style="fill:#3ca3b1;fill-opacity:1;fill-rule:nonzero;stroke:none"
         id="path3667"
         inkscape:connector-curvature="0" /><path
         d="m 2142.13,1013.8 c -2.34,0 -3.53,-2.37 -3.53,-7.12 0,-4.45 1.14,-6.66 3.44,-6.66 2.27,0 3.42,2.25 3.42,6.78 0,4.66 -1.13,7 -3.33,7 z m -0.27,-15.382 c -1.63,0 -2.89,0.703 -3.81,2.102 -0.92,1.37 -1.34,3.4 -1.34,6.04 0,2.92 0.44,5.13 1.41,6.6 0.92,1.51 2.32,2.23 4.12,2.23 3.41,0 5.13,-2.78 5.13,-8.42 0,-2.76 -0.49,-4.89 -1.45,-6.37 -0.97,-1.459 -2.32,-2.182 -4.06,-2.182"
         style="fill:#3ca3b1;fill-opacity:1;fill-rule:nonzero;stroke:none"
         id="path3669"
         inkscape:connector-curvature="0" /><path
         d="m 2154.78,1013.8 c -2.35,0 -3.52,-2.37 -3.52,-7.12 0,-4.45 1.13,-6.66 3.44,-6.66 2.3,0 3.41,2.25 3.41,6.78 0,4.66 -1.11,7 -3.33,7 z m -0.28,-15.382 c -1.63,0 -2.89,0.703 -3.8,2.102 -0.91,1.37 -1.39,3.4 -1.39,6.04 0,2.92 0.49,5.13 1.45,6.6 0.93,1.51 2.31,2.23 4.11,2.23 3.43,0 5.16,-2.78 5.16,-8.42 0,-2.76 -0.49,-4.89 -1.46,-6.37 -0.96,-1.459 -2.32,-2.182 -4.07,-2.182"
         style="fill:#3ca3b1;fill-opacity:1;fill-rule:nonzero;stroke:none"
         id="path3671"
         inkscape:connector-curvature="0" /><path
         d="m 2172.29,998.691 -9.28,0 0,1.649 3.72,0 0,12.77 -3.79,-1.15 0,1.79 5.67,1.73 0,-15.14 3.68,0 0,-1.649"
         style="fill:#3ca3b1;fill-opacity:1;fill-rule:nonzero;stroke:none"
         id="path3673"
         inkscape:connector-curvature="0" /><path
         d="m 2184.94,998.691 -9.31,0 0,1.649 3.74,0 0,12.77 -3.8,-1.15 0,1.79 5.66,1.73 0,-15.14 3.71,0 0,-1.649"
         style="fill:#3ca3b1;fill-opacity:1;fill-rule:nonzero;stroke:none"
         id="path3675"
         inkscape:connector-curvature="0" /><path
         d="m 2192.73,1013.8 c -2.37,0 -3.5,-2.37 -3.5,-7.12 0,-4.45 1.12,-6.66 3.42,-6.66 2.26,0 3.39,2.25 3.39,6.78 0,4.66 -1.12,7 -3.31,7 z m -0.28,-15.382 c -1.61,0 -2.89,0.703 -3.79,2.102 -0.94,1.37 -1.37,3.4 -1.37,6.04 0,2.92 0.45,5.13 1.42,6.6 0.96,1.51 2.32,2.23 4.1,2.23 3.44,0 5.16,-2.78 5.16,-8.42 0,-2.76 -0.48,-4.89 -1.48,-6.37 -0.95,-1.459 -2.3,-2.182 -4.04,-2.182"
         style="fill:#3ca3b1;fill-opacity:1;fill-rule:nonzero;stroke:none"
         id="path3677"
         inkscape:connector-curvature="0" /><path
         d="m 2210.23,998.691 -9.27,0 0,1.649 3.73,0 0,12.77 -3.83,-1.15 0,1.79 5.69,1.73 0,-15.14 3.68,0 0,-1.649"
         style="fill:#3ca3b1;fill-opacity:1;fill-rule:nonzero;stroke:none"
         id="path3679"
         inkscape:connector-curvature="0" /><path
         d="m 2078.88,985.664 c -2.34,0 -3.53,-2.402 -3.53,-7.141 0,-4.429 1.17,-6.675 3.46,-6.675 2.26,0 3.4,2.261 3.4,6.785 0,4.66 -1.14,7.031 -3.33,7.031 z m -0.27,-15.41 c -1.62,0 -2.9,0.715 -3.81,2.09 -0.9,1.406 -1.36,3.426 -1.36,6.094 0,2.871 0.48,5.085 1.43,6.574 0.96,1.504 2.34,2.215 4.12,2.215 3.43,0 5.15,-2.786 5.15,-8.426 0,-2.778 -0.48,-4.883 -1.46,-6.36 -0.98,-1.457 -2.33,-2.187 -4.07,-2.187"
         style="fill:#3ca3b1;fill-opacity:1;fill-rule:nonzero;stroke:none"
         id="path3681"
         inkscape:connector-curvature="0" /><path
         d="m 2096.4,970.535 -9.27,0 0,1.645 3.7,0 0,12.769 -3.8,-1.14 0,1.796 5.68,1.731 0,-15.156 3.69,0 0,-1.645"
         style="fill:#3ca3b1;fill-opacity:1;fill-rule:nonzero;stroke:none"
         id="path3683"
         inkscape:connector-curvature="0" /><path
         d="m 2104.19,985.664 c -2.37,0 -3.53,-2.402 -3.53,-7.141 0,-4.429 1.13,-6.675 3.43,-6.675 2.29,0 3.42,2.261 3.42,6.785 0,4.66 -1.1,7.031 -3.32,7.031 z m -0.27,-15.41 c -1.63,0 -2.89,0.715 -3.8,2.09 -0.92,1.406 -1.39,3.426 -1.39,6.094 0,2.871 0.47,5.085 1.41,6.574 0.97,1.504 2.33,2.215 4.14,2.215 3.43,0 5.18,-2.786 5.18,-8.426 0,-2.778 -0.51,-4.883 -1.47,-6.36 -0.98,-1.457 -2.34,-2.187 -4.07,-2.187"
         style="fill:#3ca3b1;fill-opacity:1;fill-rule:nonzero;stroke:none"
         id="path3685"
         inkscape:connector-curvature="0" /><path
         d="m 2121.71,970.535 -9.31,0 0,1.645 3.71,0 0,12.769 -3.8,-1.14 0,1.796 5.71,1.731 0,-15.156 3.69,0 0,-1.645"
         style="fill:#3ca3b1;fill-opacity:1;fill-rule:nonzero;stroke:none"
         id="path3687"
         inkscape:connector-curvature="0" /><path
         d="m 2134.35,970.535 -9.3,0 0,1.645 3.72,0 0,12.769 -3.8,-1.14 0,1.796 5.67,1.731 0,-15.156 3.71,0 0,-1.645"
         style="fill:#3ca3b1;fill-opacity:1;fill-rule:nonzero;stroke:none"
         id="path3689"
         inkscape:connector-curvature="0" /><path
         d="m 2142.13,985.664 c -2.34,0 -3.53,-2.402 -3.53,-7.141 0,-4.429 1.14,-6.675 3.44,-6.675 2.27,0 3.42,2.261 3.42,6.785 0,4.66 -1.13,7.031 -3.33,7.031 z m -0.27,-15.41 c -1.63,0 -2.89,0.715 -3.81,2.09 -0.92,1.406 -1.34,3.426 -1.34,6.094 0,2.871 0.44,5.085 1.41,6.574 0.92,1.504 2.32,2.215 4.12,2.215 3.41,0 5.13,-2.786 5.13,-8.426 0,-2.778 -0.49,-4.883 -1.45,-6.36 -0.97,-1.457 -2.32,-2.187 -4.06,-2.187"
         style="fill:#3ca3b1;fill-opacity:1;fill-rule:nonzero;stroke:none"
         id="path3691"
         inkscape:connector-curvature="0" /><path
         d="m 2154.78,985.664 c -2.35,0 -3.52,-2.402 -3.52,-7.141 0,-4.429 1.13,-6.675 3.44,-6.675 2.3,0 3.41,2.261 3.41,6.785 0,4.66 -1.11,7.031 -3.33,7.031 z m -0.28,-15.41 c -1.63,0 -2.89,0.715 -3.8,2.09 -0.91,1.406 -1.39,3.426 -1.39,6.094 0,2.871 0.49,5.085 1.45,6.574 0.93,1.504 2.31,2.215 4.11,2.215 3.43,0 5.16,-2.786 5.16,-8.426 0,-2.778 -0.49,-4.883 -1.46,-6.36 -0.96,-1.457 -2.32,-2.187 -4.07,-2.187"
         style="fill:#3ca3b1;fill-opacity:1;fill-rule:nonzero;stroke:none"
         id="path3693"
         inkscape:connector-curvature="0" /><path
         d="m 2167.41,985.664 c -2.34,0 -3.5,-2.402 -3.5,-7.141 0,-4.429 1.14,-6.675 3.44,-6.675 2.26,0 3.39,2.261 3.39,6.785 0,4.66 -1.11,7.031 -3.33,7.031 z m -0.23,-15.41 c -1.65,0 -2.93,0.715 -3.85,2.09 -0.89,1.406 -1.35,3.426 -1.35,6.094 0,2.871 0.48,5.085 1.44,6.574 0.93,1.504 2.3,2.215 4.09,2.215 3.45,0 5.15,-2.786 5.15,-8.426 0,-2.778 -0.45,-4.883 -1.44,-6.36 -0.98,-1.457 -2.31,-2.187 -4.04,-2.187"
         style="fill:#3ca3b1;fill-opacity:1;fill-rule:nonzero;stroke:none"
         id="path3695"
         inkscape:connector-curvature="0" /><path
         d="m 2180.06,985.664 c -2.35,0 -3.51,-2.402 -3.51,-7.141 0,-4.429 1.15,-6.675 3.46,-6.675 2.26,0 3.41,2.261 3.41,6.785 0,4.66 -1.13,7.031 -3.36,7.031 z m -0.25,-15.41 c -1.65,0 -2.91,0.715 -3.82,2.09 -0.9,1.406 -1.38,3.426 -1.38,6.094 0,2.871 0.49,5.085 1.43,6.574 0.95,1.504 2.34,2.215 4.13,2.215 3.42,0 5.14,-2.786 5.14,-8.426 0,-2.778 -0.47,-4.883 -1.43,-6.36 -0.97,-1.457 -2.33,-2.187 -4.07,-2.187"
         style="fill:#3ca3b1;fill-opacity:1;fill-rule:nonzero;stroke:none"
         id="path3697"
         inkscape:connector-curvature="0" /><path
         d="m 2197.6,970.535 -9.28,0 0,1.645 3.69,0 0,12.769 -3.79,-1.14 0,1.796 5.67,1.731 0,-15.156 3.71,0 0,-1.645"
         style="fill:#3ca3b1;fill-opacity:1;fill-rule:nonzero;stroke:none"
         id="path3699"
         inkscape:connector-curvature="0" /><path
         d="m 2205.37,985.664 c -2.33,0 -3.5,-2.402 -3.5,-7.141 0,-4.429 1.11,-6.675 3.43,-6.675 2.27,0 3.38,2.261 3.38,6.785 0,4.66 -1.08,7.031 -3.31,7.031 z m -0.28,-15.41 c -1.62,0 -2.86,0.715 -3.79,2.09 -0.92,1.406 -1.39,3.426 -1.39,6.094 0,2.871 0.49,5.085 1.43,6.574 0.94,1.504 2.32,2.215 4.13,2.215 3.44,0 5.16,-2.786 5.16,-8.426 0,-2.778 -0.5,-4.883 -1.46,-6.36 -0.96,-1.457 -2.34,-2.187 -4.08,-2.187"
         style="fill:#3ca3b1;fill-opacity:1;fill-rule:nonzero;stroke:none"
         id="path3701"
         inkscape:connector-curvature="0" /><path
         d="m 2222.89,970.535 -9.29,0 0,1.645 3.69,0 0,12.769 -3.77,-1.14 0,1.796 5.67,1.731 0,-15.156 3.7,0 0,-1.645"
         style="fill:#3ca3b1;fill-opacity:1;fill-rule:nonzero;stroke:none"
         id="path3703"
         inkscape:connector-curvature="0" /><path
         d="m 2235.55,970.535 -9.31,0 0,1.645 3.74,0 0,12.769 -3.83,-1.14 0,1.796 5.69,1.731 0,-15.156 3.71,0 0,-1.645"
         style="fill:#3ca3b1;fill-opacity:1;fill-rule:nonzero;stroke:none"
         id="path3705"
         inkscape:connector-curvature="0" /><path
         d="m 2248.2,970.535 -9.3,0 0,1.645 3.71,0 0,12.769 -3.8,-1.14 0,1.796 5.69,1.731 0,-15.156 3.7,0 0,-1.645"
         style="fill:#3ca3b1;fill-opacity:1;fill-rule:nonzero;stroke:none"
         id="path3707"
         inkscape:connector-curvature="0" /><path
         d="m 2255.95,985.664 c -2.33,0 -3.51,-2.402 -3.51,-7.141 0,-4.429 1.16,-6.675 3.46,-6.675 2.26,0 3.38,2.261 3.38,6.785 0,4.66 -1.08,7.031 -3.33,7.031 z m -0.27,-15.41 c -1.61,0 -2.88,0.715 -3.8,2.09 -0.91,1.406 -1.37,3.426 -1.37,6.094 0,2.871 0.48,5.085 1.42,6.574 0.95,1.504 2.32,2.215 4.14,2.215 3.42,0 5.14,-2.786 5.14,-8.426 0,-2.778 -0.51,-4.883 -1.45,-6.36 -0.97,-1.457 -2.34,-2.187 -4.08,-2.187"
         style="fill:#3ca3b1;fill-opacity:1;fill-rule:nonzero;stroke:none"
         id="path3709"
         inkscape:connector-curvature="0" /><path
         d="m 2078.88,957.488 c -2.34,0 -3.53,-2.383 -3.53,-7.136 0,-4.434 1.17,-6.641 3.46,-6.641 2.26,0 3.4,2.227 3.4,6.769 0,4.665 -1.14,7.008 -3.33,7.008 z m -0.27,-15.398 c -1.62,0 -2.9,0.715 -3.81,2.121 -0.9,1.387 -1.36,3.387 -1.36,6.062 0,2.891 0.48,5.098 1.43,6.575 0.96,1.492 2.34,2.222 4.12,2.222 3.43,0 5.15,-2.781 5.15,-8.406 0,-2.781 -0.48,-4.902 -1.46,-6.355 -0.98,-1.477 -2.33,-2.219 -4.07,-2.219"
         style="fill:#3ca3b1;fill-opacity:1;fill-rule:nonzero;stroke:none"
         id="path3711"
         inkscape:connector-curvature="0" /><path
         d="m 2096.4,942.383 -9.27,0 0,1.64 3.7,0 0,12.786 -3.8,-1.157 0,1.782 5.68,1.738 0,-15.149 3.69,0 0,-1.64"
         style="fill:#3ca3b1;fill-opacity:1;fill-rule:nonzero;stroke:none"
         id="path3713"
         inkscape:connector-curvature="0" /><path
         d="m 2104.19,957.488 c -2.37,0 -3.53,-2.383 -3.53,-7.136 0,-4.434 1.13,-6.641 3.43,-6.641 2.29,0 3.42,2.227 3.42,6.769 0,4.665 -1.1,7.008 -3.32,7.008 z m -0.27,-15.398 c -1.63,0 -2.89,0.715 -3.8,2.121 -0.92,1.387 -1.39,3.387 -1.39,6.062 0,2.891 0.47,5.098 1.41,6.575 0.97,1.492 2.33,2.222 4.14,2.222 3.43,0 5.18,-2.781 5.18,-8.406 0,-2.781 -0.51,-4.902 -1.47,-6.355 -0.98,-1.477 -2.34,-2.219 -4.07,-2.219"
         style="fill:#3ca3b1;fill-opacity:1;fill-rule:nonzero;stroke:none"
         id="path3715"
         inkscape:connector-curvature="0" /><path
         d="m 2116.82,957.488 c -2.33,0 -3.51,-2.383 -3.51,-7.136 0,-4.434 1.16,-6.641 3.44,-6.641 2.3,0 3.42,2.227 3.42,6.769 0,4.665 -1.12,7.008 -3.35,7.008 z m -0.25,-15.398 c -1.64,0 -2.9,0.715 -3.82,2.121 -0.91,1.387 -1.36,3.387 -1.36,6.062 0,2.891 0.48,5.098 1.4,6.575 0.98,1.492 2.34,2.222 4.14,2.222 3.43,0 5.15,-2.781 5.15,-8.406 0,-2.781 -0.5,-4.902 -1.45,-6.355 -0.98,-1.477 -2.32,-2.219 -4.06,-2.219"
         style="fill:#3ca3b1;fill-opacity:1;fill-rule:nonzero;stroke:none"
         id="path3717"
         inkscape:connector-curvature="0" /><path
         d="m 2134.35,942.383 -9.3,0 0,1.64 3.72,0 0,12.786 -3.8,-1.157 0,1.782 5.67,1.738 0,-15.149 3.71,0 0,-1.64"
         style="fill:#3ca3b1;fill-opacity:1;fill-rule:nonzero;stroke:none"
         id="path3719"
         inkscape:connector-curvature="0" /><path
         d="m 2147,942.383 -9.29,0 0,1.64 3.72,0 0,12.786 -3.78,-1.157 0,1.782 5.65,1.738 0,-15.149 3.7,0 0,-1.64"
         style="fill:#3ca3b1;fill-opacity:1;fill-rule:nonzero;stroke:none"
         id="path3721"
         inkscape:connector-curvature="0" /><path
         d="m 2154.78,957.488 c -2.35,0 -3.52,-2.383 -3.52,-7.136 0,-4.434 1.13,-6.641 3.44,-6.641 2.3,0 3.41,2.227 3.41,6.769 0,4.665 -1.11,7.008 -3.33,7.008 z m -0.28,-15.398 c -1.63,0 -2.89,0.715 -3.8,2.121 -0.91,1.387 -1.39,3.387 -1.39,6.062 0,2.891 0.49,5.098 1.45,6.575 0.93,1.492 2.31,2.222 4.11,2.222 3.43,0 5.16,-2.781 5.16,-8.406 0,-2.781 -0.49,-4.902 -1.46,-6.355 -0.96,-1.477 -2.32,-2.219 -4.07,-2.219"
         style="fill:#3ca3b1;fill-opacity:1;fill-rule:nonzero;stroke:none"
         id="path3723"
         inkscape:connector-curvature="0" /><path
         d="m 2167.41,957.488 c -2.34,0 -3.5,-2.383 -3.5,-7.136 0,-4.434 1.14,-6.641 3.44,-6.641 2.26,0 3.39,2.227 3.39,6.769 0,4.665 -1.11,7.008 -3.33,7.008 z m -0.23,-15.398 c -1.65,0 -2.93,0.715 -3.85,2.121 -0.89,1.387 -1.35,3.387 -1.35,6.062 0,2.891 0.48,5.098 1.44,6.575 0.93,1.492 2.3,2.222 4.09,2.222 3.45,0 5.15,-2.781 5.15,-8.406 0,-2.781 -0.45,-4.902 -1.44,-6.355 -0.98,-1.477 -2.31,-2.219 -4.04,-2.219"
         style="fill:#3ca3b1;fill-opacity:1;fill-rule:nonzero;stroke:none"
         id="path3725"
         inkscape:connector-curvature="0" /><path
         d="m 2180.06,957.488 c -2.35,0 -3.51,-2.383 -3.51,-7.136 0,-4.434 1.15,-6.641 3.46,-6.641 2.26,0 3.41,2.227 3.41,6.769 0,4.665 -1.13,7.008 -3.36,7.008 z m -0.25,-15.398 c -1.65,0 -2.91,0.715 -3.82,2.121 -0.9,1.387 -1.38,3.387 -1.38,6.062 0,2.891 0.49,5.098 1.43,6.575 0.95,1.492 2.34,2.222 4.13,2.222 3.42,0 5.14,-2.781 5.14,-8.406 0,-2.781 -0.47,-4.902 -1.43,-6.355 -0.97,-1.477 -2.33,-2.219 -4.07,-2.219"
         style="fill:#3ca3b1;fill-opacity:1;fill-rule:nonzero;stroke:none"
         id="path3727"
         inkscape:connector-curvature="0" /><path
         d="m 2197.6,942.383 -9.28,0 0,1.64 3.69,0 0,12.786 -3.79,-1.157 0,1.782 5.67,1.738 0,-15.149 3.71,0 0,-1.64"
         style="fill:#3ca3b1;fill-opacity:1;fill-rule:nonzero;stroke:none"
         id="path3729"
         inkscape:connector-curvature="0" /><path
         d="m 2210.23,942.383 -9.27,0 0,1.64 3.73,0 0,12.786 -3.83,-1.157 0,1.782 5.69,1.738 0,-15.149 3.68,0 0,-1.64"
         style="fill:#3ca3b1;fill-opacity:1;fill-rule:nonzero;stroke:none"
         id="path3731"
         inkscape:connector-curvature="0" /><path
         d="m 2218.02,957.488 c -2.36,0 -3.53,-2.383 -3.53,-7.136 0,-4.434 1.16,-6.641 3.47,-6.641 2.25,0 3.39,2.227 3.39,6.769 0,4.665 -1.13,7.008 -3.33,7.008 z m -0.27,-15.398 c -1.63,0 -2.91,0.715 -3.8,2.121 -0.9,1.387 -1.38,3.387 -1.38,6.062 0,2.891 0.49,5.098 1.44,6.575 0.95,1.492 2.32,2.222 4.1,2.222 3.44,0 5.13,-2.781 5.13,-8.406 0,-2.781 -0.48,-4.902 -1.44,-6.355 -0.97,-1.477 -2.32,-2.219 -4.05,-2.219"
         style="fill:#3ca3b1;fill-opacity:1;fill-rule:nonzero;stroke:none"
         id="path3733"
         inkscape:connector-curvature="0" /><path
         d="m 2235.55,942.383 -9.31,0 0,1.64 3.74,0 0,12.786 -3.83,-1.157 0,1.782 5.69,1.738 0,-15.149 3.71,0 0,-1.64"
         style="fill:#3ca3b1;fill-opacity:1;fill-rule:nonzero;stroke:none"
         id="path3735"
         inkscape:connector-curvature="0" /><path
         d="m 2248.2,942.383 -9.3,0 0,1.64 3.71,0 0,12.786 -3.8,-1.157 0,1.782 5.69,1.738 0,-15.149 3.7,0 0,-1.64"
         style="fill:#3ca3b1;fill-opacity:1;fill-rule:nonzero;stroke:none"
         id="path3737"
         inkscape:connector-curvature="0" /><path
         d="m 2255.95,957.488 c -2.33,0 -3.51,-2.383 -3.51,-7.136 0,-4.434 1.16,-6.641 3.46,-6.641 2.26,0 3.38,2.227 3.38,6.769 0,4.665 -1.08,7.008 -3.33,7.008 z m -0.27,-15.398 c -1.61,0 -2.88,0.715 -3.8,2.121 -0.91,1.387 -1.37,3.387 -1.37,6.062 0,2.891 0.48,5.098 1.42,6.575 0.95,1.492 2.32,2.222 4.14,2.222 3.42,0 5.14,-2.781 5.14,-8.406 0,-2.781 -0.51,-4.902 -1.45,-6.355 -0.97,-1.477 -2.34,-2.219 -4.08,-2.219"
         style="fill:#3ca3b1;fill-opacity:1;fill-rule:nonzero;stroke:none"
         id="path3739"
         inkscape:connector-curvature="0" /><path
         d="m 2083.75,914.23 -9.29,0 0,1.622 3.73,0 0,12.793 -3.81,-1.145 0,1.816 5.68,1.7 0,-15.164 3.69,0 0,-1.622"
         style="fill:#3ca3b1;fill-opacity:1;fill-rule:nonzero;stroke:none"
         id="path3741"
         inkscape:connector-curvature="0" /><path
         d="m 2091.52,929.348 c -2.34,0 -3.52,-2.407 -3.52,-7.153 0,-4.429 1.16,-6.66 3.46,-6.66 2.27,0 3.4,2.258 3.4,6.778 0,4.699 -1.13,7.035 -3.34,7.035 z m -0.25,-15.403 c -1.63,0 -2.92,0.696 -3.83,2.09 -0.91,1.406 -1.38,3.438 -1.38,6.082 0,2.895 0.49,5.078 1.44,6.574 0.96,1.497 2.35,2.247 4.13,2.247 3.45,0 5.16,-2.813 5.16,-8.426 0,-2.793 -0.48,-4.907 -1.48,-6.379 -0.95,-1.477 -2.32,-2.188 -4.04,-2.188"
         style="fill:#3ca3b1;fill-opacity:1;fill-rule:nonzero;stroke:none"
         id="path3743"
         inkscape:connector-curvature="0" /><path
         d="m 2104.19,929.348 c -2.37,0 -3.53,-2.407 -3.53,-7.153 0,-4.429 1.13,-6.66 3.43,-6.66 2.29,0 3.42,2.258 3.42,6.778 0,4.699 -1.1,7.035 -3.32,7.035 z m -0.27,-15.403 c -1.63,0 -2.89,0.696 -3.8,2.09 -0.92,1.406 -1.39,3.438 -1.39,6.082 0,2.895 0.47,5.078 1.41,6.574 0.97,1.497 2.33,2.247 4.14,2.247 3.43,0 5.18,-2.813 5.18,-8.426 0,-2.793 -0.51,-4.907 -1.47,-6.379 -0.98,-1.477 -2.34,-2.188 -4.07,-2.188"
         style="fill:#3ca3b1;fill-opacity:1;fill-rule:nonzero;stroke:none"
         id="path3745"
         inkscape:connector-curvature="0" /><path
         d="m 2116.82,929.348 c -2.33,0 -3.51,-2.407 -3.51,-7.153 0,-4.429 1.16,-6.66 3.44,-6.66 2.3,0 3.42,2.258 3.42,6.778 0,4.699 -1.12,7.035 -3.35,7.035 z m -0.25,-15.403 c -1.64,0 -2.9,0.696 -3.82,2.09 -0.91,1.406 -1.36,3.438 -1.36,6.082 0,2.895 0.48,5.078 1.4,6.574 0.98,1.497 2.34,2.247 4.14,2.247 3.43,0 5.15,-2.813 5.15,-8.426 0,-2.793 -0.5,-4.907 -1.45,-6.379 -0.98,-1.477 -2.32,-2.188 -4.06,-2.188"
         style="fill:#3ca3b1;fill-opacity:1;fill-rule:nonzero;stroke:none"
         id="path3747"
         inkscape:connector-curvature="0" /><path
         d="m 2129.47,929.348 c -2.36,0 -3.5,-2.407 -3.5,-7.153 0,-4.429 1.13,-6.66 3.42,-6.66 2.3,0 3.41,2.258 3.41,6.778 0,4.699 -1.11,7.035 -3.33,7.035 z m -0.26,-15.403 c -1.62,0 -2.91,0.696 -3.8,2.09 -0.92,1.406 -1.4,3.438 -1.4,6.082 0,2.895 0.5,5.078 1.45,6.574 0.95,1.497 2.32,2.247 4.12,2.247 3.44,0 5.14,-2.813 5.14,-8.426 0,-2.793 -0.46,-4.907 -1.44,-6.379 -1,-1.477 -2.31,-2.188 -4.07,-2.188"
         style="fill:#3ca3b1;fill-opacity:1;fill-rule:nonzero;stroke:none"
         id="path3749"
         inkscape:connector-curvature="0" /><path
         d="m 2142.13,929.348 c -2.34,0 -3.53,-2.407 -3.53,-7.153 0,-4.429 1.14,-6.66 3.44,-6.66 2.27,0 3.42,2.258 3.42,6.778 0,4.699 -1.13,7.035 -3.33,7.035 z m -0.27,-15.403 c -1.63,0 -2.89,0.696 -3.81,2.09 -0.92,1.406 -1.34,3.438 -1.34,6.082 0,2.895 0.44,5.078 1.41,6.574 0.92,1.497 2.32,2.247 4.12,2.247 3.41,0 5.13,-2.813 5.13,-8.426 0,-2.793 -0.49,-4.907 -1.45,-6.379 -0.97,-1.477 -2.32,-2.188 -4.06,-2.188"
         style="fill:#3ca3b1;fill-opacity:1;fill-rule:nonzero;stroke:none"
         id="path3751"
         inkscape:connector-curvature="0" /><path
         d="m 2159.64,914.23 -9.27,0 0,1.622 3.71,0 0,12.793 -3.82,-1.145 0,1.816 5.7,1.7 0,-15.164 3.68,0 0,-1.622"
         style="fill:#3ca3b1;fill-opacity:1;fill-rule:nonzero;stroke:none"
         id="path3753"
         inkscape:connector-curvature="0" /><path
         d="m 2167.41,929.348 c -2.34,0 -3.5,-2.407 -3.5,-7.153 0,-4.429 1.14,-6.66 3.44,-6.66 2.26,0 3.39,2.258 3.39,6.778 0,4.699 -1.11,7.035 -3.33,7.035 z m -0.23,-15.403 c -1.65,0 -2.93,0.696 -3.85,2.09 -0.89,1.406 -1.35,3.438 -1.35,6.082 0,2.895 0.48,5.078 1.44,6.574 0.93,1.497 2.3,2.247 4.09,2.247 3.45,0 5.15,-2.813 5.15,-8.426 0,-2.793 -0.45,-4.907 -1.44,-6.379 -0.98,-1.477 -2.31,-2.188 -4.04,-2.188"
         style="fill:#3ca3b1;fill-opacity:1;fill-rule:nonzero;stroke:none"
         id="path3755"
         inkscape:connector-curvature="0" /><path
         d="m 2180.06,929.348 c -2.35,0 -3.51,-2.407 -3.51,-7.153 0,-4.429 1.15,-6.66 3.46,-6.66 2.26,0 3.41,2.258 3.41,6.778 0,4.699 -1.13,7.035 -3.36,7.035 z m -0.25,-15.403 c -1.65,0 -2.91,0.696 -3.82,2.09 -0.9,1.406 -1.38,3.438 -1.38,6.082 0,2.895 0.49,5.078 1.43,6.574 0.95,1.497 2.34,2.247 4.13,2.247 3.42,0 5.14,-2.813 5.14,-8.426 0,-2.793 -0.47,-4.907 -1.43,-6.379 -0.97,-1.477 -2.33,-2.188 -4.07,-2.188"
         style="fill:#3ca3b1;fill-opacity:1;fill-rule:nonzero;stroke:none"
         id="path3757"
         inkscape:connector-curvature="0" /><path
         d="m 2192.73,929.348 c -2.37,0 -3.5,-2.407 -3.5,-7.153 0,-4.429 1.12,-6.66 3.42,-6.66 2.26,0 3.39,2.258 3.39,6.778 0,4.699 -1.12,7.035 -3.31,7.035 z m -0.28,-15.403 c -1.61,0 -2.89,0.696 -3.79,2.09 -0.94,1.406 -1.37,3.438 -1.37,6.082 0,2.895 0.45,5.078 1.42,6.574 0.96,1.497 2.32,2.247 4.1,2.247 3.44,0 5.16,-2.813 5.16,-8.426 0,-2.793 -0.48,-4.907 -1.48,-6.379 -0.95,-1.477 -2.3,-2.188 -4.04,-2.188"
         style="fill:#3ca3b1;fill-opacity:1;fill-rule:nonzero;stroke:none"
         id="path3759"
         inkscape:connector-curvature="0" /><path
         d="m 2205.37,929.348 c -2.33,0 -3.5,-2.407 -3.5,-7.153 0,-4.429 1.11,-6.66 3.43,-6.66 2.27,0 3.38,2.258 3.38,6.778 0,4.699 -1.08,7.035 -3.31,7.035 z m -0.28,-15.403 c -1.62,0 -2.86,0.696 -3.79,2.09 -0.92,1.406 -1.39,3.438 -1.39,6.082 0,2.895 0.49,5.078 1.43,6.574 0.94,1.497 2.32,2.247 4.13,2.247 3.44,0 5.16,-2.813 5.16,-8.426 0,-2.793 -0.5,-4.907 -1.46,-6.379 -0.96,-1.477 -2.34,-2.188 -4.08,-2.188"
         style="fill:#3ca3b1;fill-opacity:1;fill-rule:nonzero;stroke:none"
         id="path3761"
         inkscape:connector-curvature="0" /><path
         d="m 2218.02,929.348 c -2.36,0 -3.53,-2.407 -3.53,-7.153 0,-4.429 1.16,-6.66 3.47,-6.66 2.25,0 3.39,2.258 3.39,6.778 0,4.699 -1.13,7.035 -3.33,7.035 z m -0.27,-15.403 c -1.63,0 -2.91,0.696 -3.8,2.09 -0.9,1.406 -1.38,3.438 -1.38,6.082 0,2.895 0.49,5.078 1.44,6.574 0.95,1.497 2.32,2.247 4.1,2.247 3.44,0 5.13,-2.813 5.13,-8.426 0,-2.793 -0.48,-4.907 -1.44,-6.379 -0.97,-1.477 -2.32,-2.188 -4.05,-2.188"
         style="fill:#3ca3b1;fill-opacity:1;fill-rule:nonzero;stroke:none"
         id="path3763"
         inkscape:connector-curvature="0" /><path
         d="m 2230.67,929.348 c -2.36,0 -3.54,-2.407 -3.54,-7.153 0,-4.429 1.16,-6.66 3.46,-6.66 2.28,0 3.39,2.258 3.39,6.778 0,4.699 -1.1,7.035 -3.31,7.035 z m -0.28,-15.403 c -1.62,0 -2.91,0.696 -3.82,2.09 -0.89,1.406 -1.36,3.438 -1.36,6.082 0,2.895 0.49,5.078 1.44,6.574 0.94,1.497 2.33,2.247 4.11,2.247 3.46,0 5.16,-2.813 5.16,-8.426 0,-2.793 -0.48,-4.907 -1.45,-6.379 -0.96,-1.477 -2.32,-2.188 -4.08,-2.188"
         style="fill:#3ca3b1;fill-opacity:1;fill-rule:nonzero;stroke:none"
         id="path3765"
         inkscape:connector-curvature="0" /><path
         d="m 2248.2,914.23 -9.3,0 0,1.622 3.71,0 0,12.793 -3.8,-1.145 0,1.816 5.69,1.7 0,-15.164 3.7,0 0,-1.622"
         style="fill:#3ca3b1;fill-opacity:1;fill-rule:nonzero;stroke:none"
         id="path3767"
         inkscape:connector-curvature="0" /><path
         d="m 2260.82,914.23 -9.28,0 0,1.622 3.72,0 0,12.793 -3.81,-1.145 0,1.816 5.7,1.7 0,-15.164 3.67,0 0,-1.622"
         style="fill:#3ca3b1;fill-opacity:1;fill-rule:nonzero;stroke:none"
         id="path3769"
         inkscape:connector-curvature="0" /><path
         d="m 2078.88,901.184 c -2.34,0 -3.53,-2.368 -3.53,-7.141 0,-4.434 1.17,-6.66 3.46,-6.66 2.26,0 3.4,2.258 3.4,6.777 0,4.695 -1.14,7.024 -3.33,7.024 z m -0.27,-15.364 c -1.62,0 -2.9,0.664 -3.81,2.063 -0.9,1.402 -1.36,3.433 -1.36,6.082 0,2.89 0.48,5.078 1.43,6.555 0.96,1.511 2.34,2.253 4.12,2.253 3.43,0 5.15,-2.812 5.15,-8.418 0,-2.792 -0.48,-4.902 -1.46,-6.367 -0.98,-1.465 -2.33,-2.168 -4.07,-2.168"
         style="fill:#3ca3b1;fill-opacity:1;fill-rule:nonzero;stroke:none"
         id="path3771"
         inkscape:connector-curvature="0" /><path
         d="m 2096.4,886.074 -9.27,0 0,1.641 3.7,0 0,12.773 -3.8,-1.14 0,1.812 5.68,1.699 0,-15.144 3.69,0 0,-1.641"
         style="fill:#3ca3b1;fill-opacity:1;fill-rule:nonzero;stroke:none"
         id="path3773"
         inkscape:connector-curvature="0" /><path
         d="m 2109.06,886.074 -9.31,0 0,1.641 3.76,0 0,12.773 -3.82,-1.14 0,1.812 5.64,1.699 0,-15.144 3.73,0 0,-1.641"
         style="fill:#3ca3b1;fill-opacity:1;fill-rule:nonzero;stroke:none"
         id="path3775"
         inkscape:connector-curvature="0" /><path
         d="m 2121.71,886.074 -9.31,0 0,1.641 3.71,0 0,12.773 -3.8,-1.14 0,1.812 5.71,1.699 0,-15.144 3.69,0 0,-1.641"
         style="fill:#3ca3b1;fill-opacity:1;fill-rule:nonzero;stroke:none"
         id="path3777"
         inkscape:connector-curvature="0" /><path
         d="m 2134.35,886.074 -9.3,0 0,1.641 3.72,0 0,12.773 -3.8,-1.14 0,1.812 5.67,1.699 0,-15.144 3.71,0 0,-1.641"
         style="fill:#3ca3b1;fill-opacity:1;fill-rule:nonzero;stroke:none"
         id="path3779"
         inkscape:connector-curvature="0" /><path
         d="m 2142.13,901.184 c -2.34,0 -3.53,-2.368 -3.53,-7.141 0,-4.434 1.14,-6.66 3.44,-6.66 2.27,0 3.42,2.258 3.42,6.777 0,4.695 -1.13,7.024 -3.33,7.024 z m -0.27,-15.364 c -1.63,0 -2.89,0.664 -3.81,2.063 -0.92,1.402 -1.34,3.433 -1.34,6.082 0,2.89 0.44,5.078 1.41,6.555 0.92,1.511 2.32,2.253 4.12,2.253 3.41,0 5.13,-2.812 5.13,-8.418 0,-2.792 -0.49,-4.902 -1.45,-6.367 -0.97,-1.465 -2.32,-2.168 -4.06,-2.168"
         style="fill:#3ca3b1;fill-opacity:1;fill-rule:nonzero;stroke:none"
         id="path3781"
         inkscape:connector-curvature="0" /><path
         d="m 2159.64,886.074 -9.27,0 0,1.641 3.71,0 0,12.773 -3.82,-1.14 0,1.812 5.7,1.699 0,-15.144 3.68,0 0,-1.641"
         style="fill:#3ca3b1;fill-opacity:1;fill-rule:nonzero;stroke:none"
         id="path3783"
         inkscape:connector-curvature="0" /><path
         d="m 2172.29,886.074 -9.28,0 0,1.641 3.72,0 0,12.773 -3.79,-1.14 0,1.812 5.67,1.699 0,-15.144 3.68,0 0,-1.641"
         style="fill:#3ca3b1;fill-opacity:1;fill-rule:nonzero;stroke:none"
         id="path3785"
         inkscape:connector-curvature="0" /><path
         d="m 2180.06,901.184 c -2.35,0 -3.51,-2.368 -3.51,-7.141 0,-4.434 1.15,-6.66 3.46,-6.66 2.26,0 3.41,2.258 3.41,6.777 0,4.695 -1.13,7.024 -3.36,7.024 z m -0.25,-15.364 c -1.65,0 -2.91,0.664 -3.82,2.063 -0.9,1.402 -1.38,3.433 -1.38,6.082 0,2.89 0.49,5.078 1.43,6.555 0.95,1.511 2.34,2.253 4.13,2.253 3.42,0 5.14,-2.812 5.14,-8.418 0,-2.792 -0.47,-4.902 -1.43,-6.367 -0.97,-1.465 -2.33,-2.168 -4.07,-2.168"
         style="fill:#3ca3b1;fill-opacity:1;fill-rule:nonzero;stroke:none"
         id="path3787"
         inkscape:connector-curvature="0" /><path
         d="m 2192.73,901.184 c -2.37,0 -3.5,-2.368 -3.5,-7.141 0,-4.434 1.12,-6.66 3.42,-6.66 2.26,0 3.39,2.258 3.39,6.777 0,4.695 -1.12,7.024 -3.31,7.024 z m -0.28,-15.364 c -1.61,0 -2.89,0.664 -3.79,2.063 -0.94,1.402 -1.37,3.433 -1.37,6.082 0,2.89 0.45,5.078 1.42,6.555 0.96,1.511 2.32,2.253 4.1,2.253 3.44,0 5.16,-2.812 5.16,-8.418 0,-2.792 -0.48,-4.902 -1.48,-6.367 -0.95,-1.465 -2.3,-2.168 -4.04,-2.168"
         style="fill:#3ca3b1;fill-opacity:1;fill-rule:nonzero;stroke:none"
         id="path3789"
         inkscape:connector-curvature="0" /><path
         d="m 2205.37,901.184 c -2.33,0 -3.5,-2.368 -3.5,-7.141 0,-4.434 1.11,-6.66 3.43,-6.66 2.27,0 3.38,2.258 3.38,6.777 0,4.695 -1.08,7.024 -3.31,7.024 z m -0.28,-15.364 c -1.62,0 -2.86,0.664 -3.79,2.063 -0.92,1.402 -1.39,3.433 -1.39,6.082 0,2.89 0.49,5.078 1.43,6.555 0.94,1.511 2.32,2.253 4.13,2.253 3.44,0 5.16,-2.812 5.16,-8.418 0,-2.792 -0.5,-4.902 -1.46,-6.367 -0.96,-1.465 -2.34,-2.168 -4.08,-2.168"
         style="fill:#3ca3b1;fill-opacity:1;fill-rule:nonzero;stroke:none"
         id="path3791"
         inkscape:connector-curvature="0" /><path
         d="m 2222.89,886.074 -9.29,0 0,1.641 3.69,0 0,12.773 -3.77,-1.14 0,1.812 5.67,1.699 0,-15.144 3.7,0 0,-1.641"
         style="fill:#3ca3b1;fill-opacity:1;fill-rule:nonzero;stroke:none"
         id="path3793"
         inkscape:connector-curvature="0" /><path
         d="m 2230.67,901.184 c -2.36,0 -3.54,-2.368 -3.54,-7.141 0,-4.434 1.16,-6.66 3.46,-6.66 2.28,0 3.39,2.258 3.39,6.777 0,4.695 -1.1,7.024 -3.31,7.024 z m -0.28,-15.364 c -1.62,0 -2.91,0.664 -3.82,2.063 -0.89,1.402 -1.36,3.433 -1.36,6.082 0,2.89 0.49,5.078 1.44,6.555 0.94,1.511 2.33,2.253 4.11,2.253 3.46,0 5.16,-2.812 5.16,-8.418 0,-2.792 -0.48,-4.902 -1.45,-6.367 -0.96,-1.465 -2.32,-2.168 -4.08,-2.168"
         style="fill:#3ca3b1;fill-opacity:1;fill-rule:nonzero;stroke:none"
         id="path3795"
         inkscape:connector-curvature="0" /><path
         d="m 2243.33,901.184 c -2.36,0 -3.54,-2.368 -3.54,-7.141 0,-4.434 1.15,-6.66 3.43,-6.66 2.27,0 3.44,2.258 3.44,6.777 0,4.695 -1.13,7.024 -3.33,7.024 z m -0.28,-15.364 c -1.63,0 -2.89,0.664 -3.79,2.063 -0.93,1.402 -1.39,3.433 -1.39,6.082 0,2.89 0.46,5.078 1.42,6.555 0.93,1.511 2.32,2.253 4.12,2.253 3.45,0 5.14,-2.812 5.14,-8.418 0,-2.792 -0.45,-4.902 -1.45,-6.367 -0.96,-1.465 -2.31,-2.168 -4.05,-2.168"
         style="fill:#3ca3b1;fill-opacity:1;fill-rule:nonzero;stroke:none"
         id="path3797"
         inkscape:connector-curvature="0" /><path
         d="m 2260.82,886.074 -9.28,0 0,1.641 3.72,0 0,12.773 -3.81,-1.14 0,1.812 5.7,1.699 0,-15.144 3.67,0 0,-1.641"
         style="fill:#3ca3b1;fill-opacity:1;fill-rule:nonzero;stroke:none"
         id="path3799"
         inkscape:connector-curvature="0" /><path
         d="m 2083.75,857.922 -9.29,0 0,1.641 3.73,0 0,12.773 -3.81,-1.145 0,1.809 5.68,1.695 0,-15.132 3.69,0 0,-1.641"
         style="fill:#3ca3b1;fill-opacity:1;fill-rule:nonzero;stroke:none"
         id="path3801"
         inkscape:connector-curvature="0" /><path
         d="m 2091.52,873.027 c -2.34,0 -3.52,-2.402 -3.52,-7.109 0,-4.465 1.16,-6.688 3.46,-6.688 2.27,0 3.4,2.254 3.4,6.778 0,4.695 -1.13,7.019 -3.34,7.019 z m -0.25,-15.41 c -1.63,0 -2.92,0.735 -3.83,2.11 -0.91,1.406 -1.38,3.437 -1.38,6.074 0,2.898 0.49,5.105 1.44,6.582 0.96,1.496 2.35,2.234 4.13,2.234 3.45,0 5.16,-2.808 5.16,-8.418 0,-2.808 -0.48,-4.898 -1.48,-6.355 -0.95,-1.465 -2.32,-2.227 -4.04,-2.227"
         style="fill:#3ca3b1;fill-opacity:1;fill-rule:nonzero;stroke:none"
         id="path3803"
         inkscape:connector-curvature="0" /><path
         d="m 2109.06,857.922 -9.31,0 0,1.641 3.76,0 0,12.773 -3.82,-1.145 0,1.809 5.64,1.695 0,-15.132 3.73,0 0,-1.641"
         style="fill:#3ca3b1;fill-opacity:1;fill-rule:nonzero;stroke:none"
         id="path3805"
         inkscape:connector-curvature="0" /><path
         d="m 2116.82,873.027 c -2.33,0 -3.51,-2.402 -3.51,-7.109 0,-4.465 1.16,-6.688 3.44,-6.688 2.3,0 3.42,2.254 3.42,6.778 0,4.695 -1.12,7.019 -3.35,7.019 z m -0.25,-15.41 c -1.64,0 -2.9,0.735 -3.82,2.11 -0.91,1.406 -1.36,3.437 -1.36,6.074 0,2.898 0.48,5.105 1.4,6.582 0.98,1.496 2.34,2.234 4.14,2.234 3.43,0 5.15,-2.808 5.15,-8.418 0,-2.808 -0.5,-4.898 -1.45,-6.355 -0.98,-1.465 -2.32,-2.227 -4.06,-2.227"
         style="fill:#3ca3b1;fill-opacity:1;fill-rule:nonzero;stroke:none"
         id="path3807"
         inkscape:connector-curvature="0" /><path
         d="m 2134.35,857.922 -9.3,0 0,1.641 3.72,0 0,12.773 -3.8,-1.145 0,1.809 5.67,1.695 0,-15.132 3.71,0 0,-1.641"
         style="fill:#3ca3b1;fill-opacity:1;fill-rule:nonzero;stroke:none"
         id="path3809"
         inkscape:connector-curvature="0" /><path
         d="m 2142.13,873.027 c -2.34,0 -3.53,-2.402 -3.53,-7.109 0,-4.465 1.14,-6.688 3.44,-6.688 2.27,0 3.42,2.254 3.42,6.778 0,4.695 -1.13,7.019 -3.33,7.019 z m -0.27,-15.41 c -1.63,0 -2.89,0.735 -3.81,2.11 -0.92,1.406 -1.34,3.437 -1.34,6.074 0,2.898 0.44,5.105 1.41,6.582 0.92,1.496 2.32,2.234 4.12,2.234 3.41,0 5.13,-2.808 5.13,-8.418 0,-2.808 -0.49,-4.898 -1.45,-6.355 -0.97,-1.465 -2.32,-2.227 -4.06,-2.227"
         style="fill:#3ca3b1;fill-opacity:1;fill-rule:nonzero;stroke:none"
         id="path3811"
         inkscape:connector-curvature="0" /><path
         d="m 2154.78,873.027 c -2.35,0 -3.52,-2.402 -3.52,-7.109 0,-4.465 1.13,-6.688 3.44,-6.688 2.3,0 3.41,2.254 3.41,6.778 0,4.695 -1.11,7.019 -3.33,7.019 z m -0.28,-15.41 c -1.63,0 -2.89,0.735 -3.8,2.11 -0.91,1.406 -1.39,3.437 -1.39,6.074 0,2.898 0.49,5.105 1.45,6.582 0.93,1.496 2.31,2.234 4.11,2.234 3.43,0 5.16,-2.808 5.16,-8.418 0,-2.808 -0.49,-4.898 -1.46,-6.355 -0.96,-1.465 -2.32,-2.227 -4.07,-2.227"
         style="fill:#3ca3b1;fill-opacity:1;fill-rule:nonzero;stroke:none"
         id="path3813"
         inkscape:connector-curvature="0" /><path
         d="m 2172.29,857.922 -9.28,0 0,1.641 3.72,0 0,12.773 -3.79,-1.145 0,1.809 5.67,1.695 0,-15.132 3.68,0 0,-1.641"
         style="fill:#3ca3b1;fill-opacity:1;fill-rule:nonzero;stroke:none"
         id="path3815"
         inkscape:connector-curvature="0" /><path
         d="m 2184.94,857.922 -9.31,0 0,1.641 3.74,0 0,12.773 -3.8,-1.145 0,1.809 5.66,1.695 0,-15.132 3.71,0 0,-1.641"
         style="fill:#3ca3b1;fill-opacity:1;fill-rule:nonzero;stroke:none"
         id="path3817"
         inkscape:connector-curvature="0" /><path
         d="m 2192.73,873.027 c -2.37,0 -3.5,-2.402 -3.5,-7.109 0,-4.465 1.12,-6.688 3.42,-6.688 2.26,0 3.39,2.254 3.39,6.778 0,4.695 -1.12,7.019 -3.31,7.019 z m -0.28,-15.41 c -1.61,0 -2.89,0.735 -3.79,2.11 -0.94,1.406 -1.37,3.437 -1.37,6.074 0,2.898 0.45,5.105 1.42,6.582 0.96,1.496 2.32,2.234 4.1,2.234 3.44,0 5.16,-2.808 5.16,-8.418 0,-2.808 -0.48,-4.898 -1.48,-6.355 -0.95,-1.465 -2.3,-2.227 -4.04,-2.227"
         style="fill:#3ca3b1;fill-opacity:1;fill-rule:nonzero;stroke:none"
         id="path3819"
         inkscape:connector-curvature="0" /><path
         d="m 2205.37,873.027 c -2.33,0 -3.5,-2.402 -3.5,-7.109 0,-4.465 1.11,-6.688 3.43,-6.688 2.27,0 3.38,2.254 3.38,6.778 0,4.695 -1.08,7.019 -3.31,7.019 z m -0.28,-15.41 c -1.62,0 -2.86,0.735 -3.79,2.11 -0.92,1.406 -1.39,3.437 -1.39,6.074 0,2.898 0.49,5.105 1.43,6.582 0.94,1.496 2.32,2.234 4.13,2.234 3.44,0 5.16,-2.808 5.16,-8.418 0,-2.808 -0.5,-4.898 -1.46,-6.355 -0.96,-1.465 -2.34,-2.227 -4.08,-2.227"
         style="fill:#3ca3b1;fill-opacity:1;fill-rule:nonzero;stroke:none"
         id="path3821"
         inkscape:connector-curvature="0" /><path
         d="m 2222.89,857.922 -9.29,0 0,1.641 3.69,0 0,12.773 -3.77,-1.145 0,1.809 5.67,1.695 0,-15.132 3.7,0 0,-1.641"
         style="fill:#3ca3b1;fill-opacity:1;fill-rule:nonzero;stroke:none"
         id="path3823"
         inkscape:connector-curvature="0" /><path
         d="m 2230.67,873.027 c -2.36,0 -3.54,-2.402 -3.54,-7.109 0,-4.465 1.16,-6.688 3.46,-6.688 2.28,0 3.39,2.254 3.39,6.778 0,4.695 -1.1,7.019 -3.31,7.019 z m -0.28,-15.41 c -1.62,0 -2.91,0.735 -3.82,2.11 -0.89,1.406 -1.36,3.437 -1.36,6.074 0,2.898 0.49,5.105 1.44,6.582 0.94,1.496 2.33,2.234 4.11,2.234 3.46,0 5.16,-2.808 5.16,-8.418 0,-2.808 -0.48,-4.898 -1.45,-6.355 -0.96,-1.465 -2.32,-2.227 -4.08,-2.227"
         style="fill:#3ca3b1;fill-opacity:1;fill-rule:nonzero;stroke:none"
         id="path3825"
         inkscape:connector-curvature="0" /><path
         d="m 2248.2,857.922 -9.3,0 0,1.641 3.71,0 0,12.773 -3.8,-1.145 0,1.809 5.69,1.695 0,-15.132 3.7,0 0,-1.641"
         style="fill:#3ca3b1;fill-opacity:1;fill-rule:nonzero;stroke:none"
         id="path3827"
         inkscape:connector-curvature="0" /><path
         d="m 2255.95,873.027 c -2.33,0 -3.51,-2.402 -3.51,-7.109 0,-4.465 1.16,-6.688 3.46,-6.688 2.26,0 3.38,2.254 3.38,6.778 0,4.695 -1.08,7.019 -3.33,7.019 z m -0.27,-15.41 c -1.61,0 -2.88,0.735 -3.8,2.11 -0.91,1.406 -1.37,3.437 -1.37,6.074 0,2.898 0.48,5.105 1.42,6.582 0.95,1.496 2.32,2.234 4.14,2.234 3.42,0 5.14,-2.808 5.14,-8.418 0,-2.808 -0.51,-4.898 -1.45,-6.355 -0.97,-1.465 -2.34,-2.227 -4.08,-2.227"
         style="fill:#3ca3b1;fill-opacity:1;fill-rule:nonzero;stroke:none"
         id="path3829"
         inkscape:connector-curvature="0" /><path
         d="m 2083.75,829.766 -9.29,0 0,1.629 3.73,0 0,12.777 -3.81,-1.137 0,1.801 5.68,1.734 0,-15.175 3.69,0 0,-1.629"
         style="fill:#3ca3b1;fill-opacity:1;fill-rule:nonzero;stroke:none"
         id="path3831"
         inkscape:connector-curvature="0" /><path
         d="m 2096.4,829.766 -9.27,0 0,1.629 3.7,0 0,12.777 -3.8,-1.137 0,1.801 5.68,1.734 0,-15.175 3.69,0 0,-1.629"
         style="fill:#3ca3b1;fill-opacity:1;fill-rule:nonzero;stroke:none"
         id="path3833"
         inkscape:connector-curvature="0" /><path
         d="m 2104.19,844.863 c -2.37,0 -3.53,-2.375 -3.53,-7.109 0,-4.461 1.13,-6.699 3.43,-6.699 2.29,0 3.42,2.265 3.42,6.789 0,4.683 -1.1,7.019 -3.32,7.019 z m -0.27,-15.383 c -1.63,0 -2.89,0.688 -3.8,2.09 -0.92,1.391 -1.39,3.418 -1.39,6.067 0,2.91 0.47,5.105 1.41,6.601 0.97,1.485 2.33,2.215 4.14,2.215 3.43,0 5.18,-2.781 5.18,-8.418 0,-2.781 -0.51,-4.898 -1.47,-6.355 -0.98,-1.477 -2.34,-2.2 -4.07,-2.2"
         style="fill:#3ca3b1;fill-opacity:1;fill-rule:nonzero;stroke:none"
         id="path3835"
         inkscape:connector-curvature="0" /><path
         d="m 2116.82,844.863 c -2.33,0 -3.51,-2.375 -3.51,-7.109 0,-4.461 1.16,-6.699 3.44,-6.699 2.3,0 3.42,2.265 3.42,6.789 0,4.683 -1.12,7.019 -3.35,7.019 z m -0.25,-15.383 c -1.64,0 -2.9,0.688 -3.82,2.09 -0.91,1.391 -1.36,3.418 -1.36,6.067 0,2.91 0.48,5.105 1.4,6.601 0.98,1.485 2.34,2.215 4.14,2.215 3.43,0 5.15,-2.781 5.15,-8.418 0,-2.781 -0.5,-4.898 -1.45,-6.355 -0.98,-1.477 -2.32,-2.2 -4.06,-2.2"
         style="fill:#3ca3b1;fill-opacity:1;fill-rule:nonzero;stroke:none"
         id="path3837"
         inkscape:connector-curvature="0" /><path
         d="m 2129.47,844.863 c -2.36,0 -3.5,-2.375 -3.5,-7.109 0,-4.461 1.13,-6.699 3.42,-6.699 2.3,0 3.41,2.265 3.41,6.789 0,4.683 -1.11,7.019 -3.33,7.019 z m -0.26,-15.383 c -1.62,0 -2.91,0.688 -3.8,2.09 -0.92,1.391 -1.4,3.418 -1.4,6.067 0,2.91 0.5,5.105 1.45,6.601 0.95,1.485 2.32,2.215 4.12,2.215 3.44,0 5.14,-2.781 5.14,-8.418 0,-2.781 -0.46,-4.898 -1.44,-6.355 -1,-1.477 -2.31,-2.2 -4.07,-2.2"
         style="fill:#3ca3b1;fill-opacity:1;fill-rule:nonzero;stroke:none"
         id="path3839"
         inkscape:connector-curvature="0" /><path
         d="m 2147,829.766 -9.29,0 0,1.629 3.72,0 0,12.777 -3.78,-1.137 0,1.801 5.65,1.734 0,-15.175 3.7,0 0,-1.629"
         style="fill:#3ca3b1;fill-opacity:1;fill-rule:nonzero;stroke:none"
         id="path3841"
         inkscape:connector-curvature="0" /><path
         d="m 2159.64,829.766 -9.27,0 0,1.629 3.71,0 0,12.777 -3.82,-1.137 0,1.801 5.7,1.734 0,-15.175 3.68,0 0,-1.629"
         style="fill:#3ca3b1;fill-opacity:1;fill-rule:nonzero;stroke:none"
         id="path3843"
         inkscape:connector-curvature="0" /><path
         d="m 2167.41,844.863 c -2.34,0 -3.5,-2.375 -3.5,-7.109 0,-4.461 1.14,-6.699 3.44,-6.699 2.26,0 3.39,2.265 3.39,6.789 0,4.683 -1.11,7.019 -3.33,7.019 z m -0.23,-15.383 c -1.65,0 -2.93,0.688 -3.85,2.09 -0.89,1.391 -1.35,3.418 -1.35,6.067 0,2.91 0.48,5.105 1.44,6.601 0.93,1.485 2.3,2.215 4.09,2.215 3.45,0 5.15,-2.781 5.15,-8.418 0,-2.781 -0.45,-4.898 -1.44,-6.355 -0.98,-1.477 -2.31,-2.2 -4.04,-2.2"
         style="fill:#3ca3b1;fill-opacity:1;fill-rule:nonzero;stroke:none"
         id="path3845"
         inkscape:connector-curvature="0" /><path
         d="m 2184.94,829.766 -9.31,0 0,1.629 3.74,0 0,12.777 -3.8,-1.137 0,1.801 5.66,1.734 0,-15.175 3.71,0 0,-1.629"
         style="fill:#3ca3b1;fill-opacity:1;fill-rule:nonzero;stroke:none"
         id="path3847"
         inkscape:connector-curvature="0" /><path
         d="m 2197.6,829.766 -9.28,0 0,1.629 3.69,0 0,12.777 -3.79,-1.137 0,1.801 5.67,1.734 0,-15.175 3.71,0 0,-1.629"
         style="fill:#3ca3b1;fill-opacity:1;fill-rule:nonzero;stroke:none"
         id="path3849"
         inkscape:connector-curvature="0" /><path
         d="m 2210.23,829.766 -9.27,0 0,1.629 3.73,0 0,12.777 -3.83,-1.137 0,1.801 5.69,1.734 0,-15.175 3.68,0 0,-1.629"
         style="fill:#3ca3b1;fill-opacity:1;fill-rule:nonzero;stroke:none"
         id="path3851"
         inkscape:connector-curvature="0" /><path
         d="m 2218.02,844.863 c -2.36,0 -3.53,-2.375 -3.53,-7.109 0,-4.461 1.16,-6.699 3.47,-6.699 2.25,0 3.39,2.265 3.39,6.789 0,4.683 -1.13,7.019 -3.33,7.019 z m -0.27,-15.383 c -1.63,0 -2.91,0.688 -3.8,2.09 -0.9,1.391 -1.38,3.418 -1.38,6.067 0,2.91 0.49,5.105 1.44,6.601 0.95,1.485 2.32,2.215 4.1,2.215 3.44,0 5.13,-2.781 5.13,-8.418 0,-2.781 -0.48,-4.898 -1.44,-6.355 -0.97,-1.477 -2.32,-2.2 -4.05,-2.2"
         style="fill:#3ca3b1;fill-opacity:1;fill-rule:nonzero;stroke:none"
         id="path3853"
         inkscape:connector-curvature="0" /><path
         d="m 2235.55,829.766 -9.31,0 0,1.629 3.74,0 0,12.777 -3.83,-1.137 0,1.801 5.69,1.734 0,-15.175 3.71,0 0,-1.629"
         style="fill:#3ca3b1;fill-opacity:1;fill-rule:nonzero;stroke:none"
         id="path3855"
         inkscape:connector-curvature="0" /><path
         d="m 2243.33,844.863 c -2.36,0 -3.54,-2.375 -3.54,-7.109 0,-4.461 1.15,-6.699 3.43,-6.699 2.27,0 3.44,2.265 3.44,6.789 0,4.683 -1.13,7.019 -3.33,7.019 z m -0.28,-15.383 c -1.63,0 -2.89,0.688 -3.79,2.09 -0.93,1.391 -1.39,3.418 -1.39,6.067 0,2.91 0.46,5.105 1.42,6.601 0.93,1.485 2.32,2.215 4.12,2.215 3.45,0 5.14,-2.781 5.14,-8.418 0,-2.781 -0.45,-4.898 -1.45,-6.355 -0.96,-1.477 -2.31,-2.2 -4.05,-2.2"
         style="fill:#3ca3b1;fill-opacity:1;fill-rule:nonzero;stroke:none"
         id="path3857"
         inkscape:connector-curvature="0" /><path
         d="m 2255.95,844.863 c -2.33,0 -3.51,-2.375 -3.51,-7.109 0,-4.461 1.16,-6.699 3.46,-6.699 2.26,0 3.38,2.265 3.38,6.789 0,4.683 -1.08,7.019 -3.33,7.019 z m -0.27,-15.383 c -1.61,0 -2.88,0.688 -3.8,2.09 -0.91,1.391 -1.37,3.418 -1.37,6.067 0,2.91 0.48,5.105 1.42,6.601 0.95,1.485 2.32,2.215 4.14,2.215 3.42,0 5.14,-2.781 5.14,-8.418 0,-2.781 -0.51,-4.898 -1.45,-6.355 -0.97,-1.477 -2.34,-2.2 -4.08,-2.2"
         style="fill:#3ca3b1;fill-opacity:1;fill-rule:nonzero;stroke:none"
         id="path3859"
         inkscape:connector-curvature="0" /><path
         d="m 2261.06,995.813 -45.49,0 c -4.88,0 -8.85,3.972 -8.85,8.887 l 0,48.23"
         style="fill:#ffffff;fill-opacity:1;fill-rule:nonzero;stroke:none"
         id="path3861"
         inkscape:connector-curvature="0" /><path
         d="m 2261.06,992.355 -45.49,0 c -6.77,0 -12.34,5.536 -12.34,12.345 l 0,48.23 c 0,1.91 1.56,3.48 3.49,3.48 1.91,0 3.49,-1.57 3.49,-3.48 l 0,-48.23 c 0,-3.01 2.38,-5.423 5.36,-5.423 l 45.49,0 c 1.89,0 3.45,-1.55 3.45,-3.464 0,-1.926 -1.56,-3.458 -3.45,-3.458"
         style="fill:#4f4c4c;fill-opacity:1;fill-rule:nonzero;stroke:none"
         id="path3863"
         inkscape:connector-curvature="0" /></g><text
       xml:space="preserve"
       style="font-style:normal;font-weight:normal;font-size:12.76669502px;line-height:125%;font-family:sans-serif;letter-spacing:0px;word-spacing:0px;fill:#000000;fill-opacity:1;stroke:none;stroke-width:1px;stroke-linecap:butt;stroke-linejoin:miter;stroke-opacity:1"
       x="133.13362"
       y="-22.927517"
       id="text3865"
       sodipodi:linespacing="125%"
       transform="scale(1,-1)"><tspan
         sodipodi:role="line"
         id="tspan3867"
         x="133.13362"
         y="-22.927517"
         style="font-style:normal;font-variant:normal;font-weight:300;font-stretch:normal;font-size:13px;line-height:125%;font-family:'Open Sans';-inkscape-font-specification:'Open Sans, Light';text-align:center;writing-mode:lr-tb;text-anchor:middle"><tspan
   style="font-style:normal;font-variant:normal;font-weight:300;font-stretch:normal;font-size:13px;line-height:125%;font-family:'Open Sans';-inkscape-font-specification:'Open Sans, Light';text-align:center;writing-mode:lr-tb;text-anchor:middle;fill:#00a0b0;fill-opacity:1;stroke:none;stroke-opacity:1"
   id="tspan3873">research</tspan>object.org</tspan><tspan
         sodipodi:role="line"
         x="133.13362"
         y="-11.582949"
         style="font-style:normal;font-variant:normal;font-weight:300;font-stretch:normal;font-size:8px;line-height:125%;font-family:'Open Sans';-inkscape-font-specification:'Open Sans, Light';text-align:center;writing-mode:lr-tb;text-anchor:middle"
         id="tspan5840">Enabling <tspan
   style="font-style:normal;font-variant:normal;font-weight:300;font-stretch:normal;font-size:8px;line-height:125%;font-family:'Open Sans';-inkscape-font-specification:'Open Sans, Light';text-align:center;writing-mode:lr-tb;text-anchor:middle;fill:#00a0b0;fill-opacity:1"
   id="tspan6642">reproducible</tspan>, transparent research</tspan></text>
</g></svg>